FacadeStencil-SemiBold.ufo
<glyph name="dollar" format="2">
  <advance width="750.0"/>
  <unicode hex="0024"/>
  <outline>
    <contour>
      <point x="373.25" y="-18.0" type="curve" smooth="yes"/>
      <point x="549.25" y="-18.0"/>
      <point x="663.75" y="99.75"/>
      <point x="663.75" y="255.25" type="curve" smooth="yes"/>
      <point x="663.75" y="414.25"/>
      <point x="543.5" y="482.0"/>
      <point x="476.75" y="515.0" type="curve" smooth="yes"/>
      <point x="420.0" y="543.0" type="line"/>
      <point x="420.0" y="366.0" type="line"/>
      <point x="455.0" y="347.0"/>
      <point x="508.25" y="312.25"/>
      <point x="508.25" y="245.25" type="curve" smooth="yes"/>
      <point x="508.25" y="179.75"/>
      <point x="457.25" y="129.0"/>
      <point x="378.75" y="129.0" type="curve" smooth="yes"/>
      <point x="286.0" y="129.0"/>
      <point x="196.25" y="191.75"/>
      <point x="151.75" y="272.0" type="curve"/>
      <point x="106.75" y="87.5" type="line"/>
      <point x="163.75" y="28.75"/>
      <point x="264.0" y="-18.0"/>
    </contour>
    <contour>
      <point x="339.0" y="-120.0" type="line"/>
      <point x="441.0" y="-120.0" type="line"/>
      <point x="441.0" y="60.0" type="line"/>
      <point x="339.0" y="60.0" type="line"/>
    </contour>
    <contour>
      <point x="360.0" y="397.0" type="line"/>
      <point x="360.0" y="573.0" type="line"/>
      <point x="315.25" y="596.5"/>
      <point x="277.75" y="624.75"/>
      <point x="277.75" y="677.0" type="curve" smooth="yes"/>
      <point x="277.75" y="731.0"/>
      <point x="317.75" y="773.0"/>
      <point x="387.25" y="773.0" type="curve" smooth="yes"/>
      <point x="462.5" y="773.0"/>
      <point x="539.25" y="723.5"/>
      <point x="588.0" y="657.75" type="curve"/>
      <point x="630.75" y="838.5" type="line"/>
      <point x="581.5" y="876.75"/>
      <point x="498.0" y="918.0"/>
      <point x="394.5" y="918.0" type="curve" smooth="yes"/>
      <point x="229.5" y="918.0"/>
      <point x="122.25" y="816.25"/>
      <point x="122.25" y="669.0" type="curve" smooth="yes"/>
      <point x="122.25" y="529.75"/>
      <point x="216.75" y="468.0"/>
      <point x="299.75" y="426.75" type="curve" smooth="yes"/>
    </contour>
    <contour>
      <point x="339.0" y="840.0" type="line"/>
      <point x="441.0" y="840.0" type="line"/>
      <point x="441.0" y="990.0" type="line"/>
      <point x="339.0" y="990.0" type="line"/>
    </contour>
  </outline>
</glyph>
<glyph name="plus" format="2">
  <advance width="750.0"/>
  <unicode hex="002B"/>
  <outline>
    <contour>
      <point x="309.0" y="127.5" type="line"/>
      <point x="441.0" y="127.5" type="line"/>
      <point x="441.0" y="772.5" type="line"/>
      <point x="309.0" y="772.5" type="line"/>
    </contour>
    <contour>
      <point x="52.5" y="387.0" type="line"/>
      <point x="697.5" y="387.0" type="line"/>
      <point x="697.5" y="513.0" type="line"/>
      <point x="52.5" y="513.0" type="line"/>
    </contour>
  </outline>
</glyph>
<glyph name="period" format="2">
  <advance width="292.5"/>
  <unicode hex="002E"/>
  <outline>
    <contour>
      <point x="146.25" y="-18.0" type="curve" smooth="yes"/>
      <point x="204.0" y="-18.0"/>
      <point x="246.75" y="25.75"/>
      <point x="246.75" y="82.5" type="curve" smooth="yes"/>
      <point x="246.75" y="139.25"/>
      <point x="204.0" y="183.0"/>
      <point x="146.25" y="183.0" type="curve" smooth="yes"/>
      <point x="89.5" y="183.0"/>
      <point x="45.75" y="139.25"/>
      <point x="45.75" y="82.5" type="curve" smooth="yes"/>
      <point x="45.75" y="25.75"/>
      <point x="89.5" y="-18.0"/>
    </contour>
  </outline>
</glyph>
<glyph name="three" format="2">
  <advance width="750.0"/>
  <unicode hex="0033"/>
  <outline>
    <contour>
      <point x="356.25" y="-17.0" type="line"/>
      <point x="520.25" y="-2.0"/>
      <point x="654.0" y="128.25"/>
      <point x="654.0" y="295.5" type="curve" smooth="yes"/>
      <point x="654.0" y="433.25"/>
      <point x="562.75" y="543.75"/>
      <point x="443.0" y="582.0" type="curve"/>
      <point x="613.5" y="900.0" type="line"/>
      <point x="451.75" y="900.0" type="line"/>
      <point x="215.0" y="439.25" type="line"/>
      <point x="250.25" y="458.0"/>
      <point x="284.75" y="468.0"/>
      <point x="324.0" y="468.0" type="curve" smooth="yes"/>
      <point x="427.25" y="468.0"/>
      <point x="499.5" y="392.5"/>
      <point x="499.5" y="299.25" type="curve" smooth="yes"/>
      <point x="499.5" y="213.5"/>
      <point x="438.0" y="144.25"/>
      <point x="356.25" y="131.0" type="curve"/>
    </contour>
    <contour>
      <point x="297.0" y="-17.0" type="curve"/>
      <point x="297.0" y="131.75" type="line"/>
      <point x="216.75" y="144.75"/>
      <point x="156.25" y="209.75"/>
      <point x="138.75" y="288.5" type="curve"/>
      <point x="54.0" y="121.5" type="line"/>
      <point x="106.25" y="44.75"/>
      <point x="194.25" y="-8.75"/>
    </contour>
    <contour>
      <point x="115.5" y="759.0" type="line"/>
      <point x="314.0" y="759.0" type="line"/>
      <point x="385.75" y="900.0" type="line"/>
      <point x="115.5" y="900.0" type="line"/>
    </contour>
  </outline>
</glyph>
<glyph name="five" format="2">
  <advance width="750.0"/>
  <unicode hex="0035"/>
  <outline>
    <contour>
      <point x="360.5" y="-17.0" type="line"/>
      <point x="523.75" y="-2.75"/>
      <point x="654.0" y="129.5"/>
      <point x="654.0" y="298.25" type="curve" smooth="yes"/>
      <point x="654.0" y="474.5"/>
      <point x="512.5" y="602.5"/>
      <point x="352.75" y="602.5" type="curve" smooth="yes"/>
      <point x="333.25" y="602.5"/>
      <point x="314.75" y="600.75"/>
      <point x="297.5" y="594.75" type="curve"/>
      <point x="297.5" y="900.0" type="line"/>
      <point x="165.0" y="900.0" type="line"/>
      <point x="165.0" y="395.75" type="line"/>
      <point x="203.5" y="439.0"/>
      <point x="259.25" y="467.5"/>
      <point x="321.0" y="467.5" type="curve" smooth="yes"/>
      <point x="418.75" y="467.5"/>
      <point x="499.5" y="398.75"/>
      <point x="499.5" y="299.75" type="curve" smooth="yes"/>
      <point x="499.5" y="213.5"/>
      <point x="438.75" y="146.0"/>
      <point x="360.5" y="131.75" type="curve"/>
    </contour>
    <contour>
      <point x="296.5" y="-17.0" type="curve"/>
      <point x="296.5" y="131.0" type="line"/>
      <point x="217.5" y="144.0"/>
      <point x="156.25" y="209.0"/>
      <point x="138.75" y="288.5" type="curve"/>
      <point x="54.0" y="121.5" type="line"/>
      <point x="106.25" y="44.75"/>
      <point x="195.0" y="-8.0"/>
    </contour>
    <contour>
      <point x="357.5" y="757.5" type="line"/>
      <point x="590.5" y="757.5" type="line"/>
      <point x="590.5" y="900.0" type="line"/>
      <point x="357.5" y="900.0" type="line"/>
    </contour>
  </outline>
</glyph>
<glyph name="seven" format="2">
  <advance width="750.0"/>
  <unicode hex="0037"/>
  <outline>
    <contour>
      <point x="110.0" y="0.0" type="line"/>
      <point x="289.0" y="0.0" type="line"/>
      <point x="717.5" y="900.0" type="line"/>
      <point x="544.0" y="900.0" type="line"/>
    </contour>
    <contour>
      <point x="78.0" y="753.0" type="line"/>
      <point x="405.75" y="753.0" type="line"/>
      <point x="476.5" y="900.0" type="line"/>
      <point x="78.0" y="900.0" type="line"/>
    </contour>
  </outline>
</glyph>
<glyph name="eight" format="2">
  <advance width="750.0"/>
  <unicode hex="0038"/>
  <outline>
    <contour>
      <point x="343.0" y="-17.0" type="curve"/>
      <point x="343.0" y="128.75" type="line"/>
      <point x="266.0" y="143.0"/>
      <point x="207.0" y="211.25"/>
      <point x="207.0" y="294.0" type="curve" smooth="yes"/>
      <point x="207.0" y="377.75"/>
      <point x="266.25" y="446.0"/>
      <point x="344.25" y="459.25" type="curve"/>
      <point x="344.25" y="593.75" type="line"/>
      <point x="306.5" y="606.0"/>
      <point x="278.75" y="642.5"/>
      <point x="278.75" y="685.25" type="curve" smooth="yes"/>
      <point x="278.75" y="728.0"/>
      <point x="306.5" y="764.5"/>
      <point x="345.25" y="776.75" type="curve"/>
      <point x="345.25" y="916.0" type="line"/>
      <point x="230.25" y="902.0"/>
      <point x="142.25" y="809.75"/>
      <point x="142.25" y="691.5" type="curve" smooth="yes"/>
      <point x="142.25" y="618.75"/>
      <point x="174.25" y="563.25"/>
      <point x="223.75" y="522.25" type="curve"/>
      <point x="241.0" y="575.5" type="line"/>
      <point x="132.75" y="527.75"/>
      <point x="55.5" y="421.75"/>
      <point x="55.5" y="293.75" type="curve" smooth="yes"/>
      <point x="55.5" y="128.0"/>
      <point x="185.0" y="-2.0"/>
    </contour>
    <contour>
      <point x="407.0" y="-16.25" type="line"/>
      <point x="562.5" y="-1.25"/>
      <point x="694.5" y="131.75"/>
      <point x="694.5" y="293.75" type="curve" smooth="yes"/>
      <point x="694.5" y="421.75"/>
      <point x="617.25" y="527.75"/>
      <point x="509.0" y="575.5" type="curve"/>
      <point x="526.25" y="522.25" type="line"/>
      <point x="575.75" y="562.25"/>
      <point x="607.75" y="618.75"/>
      <point x="607.75" y="691.5" type="curve" smooth="yes"/>
      <point x="607.75" y="809.75"/>
      <point x="519.75" y="902.0"/>
      <point x="404.75" y="916.0" type="curve"/>
      <point x="404.75" y="776.75" type="line"/>
      <point x="443.5" y="763.75"/>
      <point x="471.25" y="728.0"/>
      <point x="471.25" y="685.25" type="curve" smooth="yes"/>
      <point x="471.25" y="642.5"/>
      <point x="443.5" y="606.75"/>
      <point x="405.75" y="593.75" type="curve"/>
      <point x="405.75" y="459.25" type="line"/>
      <point x="484.5" y="445.25"/>
      <point x="543.0" y="377.0"/>
      <point x="543.0" y="294.0" type="curve" smooth="yes"/>
      <point x="543.0" y="211.25"/>
      <point x="484.5" y="142.75"/>
      <point x="407.0" y="128.75" type="curve"/>
    </contour>
  </outline>
</glyph>
<glyph name="equal" format="2">
  <advance width="750.0"/>
  <unicode hex="003D"/>
  <outline>
    <contour>
      <point x="82.5" y="265.5" type="line"/>
      <point x="667.5" y="265.5" type="line"/>
      <point x="667.5" y="391.5" type="line"/>
      <point x="82.5" y="391.5" type="line"/>
    </contour>
    <contour>
      <point x="82.5" y="508.5" type="line"/>
      <point x="667.5" y="508.5" type="line"/>
      <point x="667.5" y="634.5" type="line"/>
      <point x="82.5" y="634.5" type="line"/>
    </contour>
  </outline>
</glyph>
<glyph name="greater" format="2">
  <advance width="750.0"/>
  <unicode hex="003E"/>
  <outline>
    <contour>
      <point x="76.5" y="135.5" type="line"/>
      <point x="717.0" y="450.5" type="line"/>
      <point x="76.5" y="766.5" type="line"/>
      <point x="76.5" y="624.25" type="line"/>
      <point x="331.5" y="502.0" type="line" smooth="yes"/>
      <point x="368.5" y="484.0"/>
      <point x="411.5" y="467.0"/>
      <point x="452.5" y="451.0" type="curve"/>
      <point x="411.5" y="434.0"/>
      <point x="368.5" y="417.0"/>
      <point x="331.5" y="399.0" type="curve" smooth="yes"/>
      <point x="76.5" y="275.75" type="line"/>
    </contour>
  </outline>
</glyph>
<glyph name="at" format="2">
  <advance width="1260.0"/>
  <unicode hex="0040"/>
  <outline>
    <contour>
      <point x="619.0" y="-191.0" type="curve"/>
      <point x="619.0" y="-69.5" type="line"/>
      <point x="381.25" y="-55.0"/>
      <point x="204.0" y="126.75"/>
      <point x="204.0" y="357.75" type="curve" smooth="yes"/>
      <point x="204.0" y="586.25"/>
      <point x="376.0" y="771.5"/>
      <point x="619.0" y="788.75" type="curve"/>
      <point x="619.0" y="911.0" type="line"/>
      <point x="309.0" y="895.25"/>
      <point x="70.5" y="653.25"/>
      <point x="70.5" y="356.25" type="curve" smooth="yes"/>
      <point x="70.5" y="59.25"/>
      <point x="313.0" y="-177.75"/>
    </contour>
    <contour>
      <point x="683.0" y="-191.0" type="line"/>
      <point x="795.25" y="-185.25"/>
      <point x="898.0" y="-148.25"/>
      <point x="984.0" y="-86.0" type="curve"/>
      <point x="952.75" y="33.5" type="line"/>
      <point x="875.75" y="-28.0"/>
      <point x="783.25" y="-64.25"/>
      <point x="683.0" y="-69.5" type="curve"/>
    </contour>
    <contour>
      <point x="603.0" y="77.5" type="curve" smooth="yes"/>
      <point x="641.75" y="77.5"/>
      <point x="678.25" y="85.75"/>
      <point x="711.0" y="100.0" type="curve"/>
      <point x="711.0" y="230.75" type="line"/>
      <point x="687.25" y="213.5"/>
      <point x="657.75" y="203.5"/>
      <point x="625.5" y="203.5" type="curve" smooth="yes"/>
      <point x="540.75" y="203.5"/>
      <point x="473.25" y="273.25"/>
      <point x="473.25" y="360.0" type="curve" smooth="yes"/>
      <point x="473.25" y="446.75"/>
      <point x="540.75" y="516.5"/>
      <point x="625.5" y="516.5" type="curve" smooth="yes"/>
      <point x="657.75" y="516.5"/>
      <point x="687.25" y="506.5"/>
      <point x="711.0" y="489.25" type="curve"/>
      <point x="711.0" y="620.25" type="line"/>
      <point x="678.25" y="634.25"/>
      <point x="641.75" y="642.5"/>
      <point x="603.0" y="642.5" type="curve" smooth="yes"/>
      <point x="451.75" y="642.5"/>
      <point x="330.25" y="515.25"/>
      <point x="330.25" y="360.0" type="curve" smooth="yes"/>
      <point x="330.25" y="204.75"/>
      <point x="451.75" y="77.5"/>
    </contour>
    <contour>
      <point x="950.25" y="77.5" type="curve" smooth="yes"/>
      <point x="1078.75" y="77.5"/>
      <point x="1201.5" y="193.75"/>
      <point x="1201.5" y="404.0" type="curve" smooth="yes"/>
      <point x="1201.5" y="686.25"/>
      <point x="973.75" y="898.5"/>
      <point x="683.0" y="911.0" type="curve"/>
      <point x="683.0" y="790.25" type="line"/>
      <point x="915.5" y="780.25"/>
      <point x="1068.0" y="614.75"/>
      <point x="1068.0" y="390.5" type="curve" smooth="yes"/>
      <point x="1068.0" y="262.75"/>
      <point x="1021.5" y="183.25"/>
      <point x="959.75" y="183.25" type="curve" smooth="yes"/>
      <point x="925.75" y="183.25"/>
      <point x="897.25" y="206.25"/>
      <point x="897.25" y="262.25" type="curve" smooth="yes"/>
      <point x="897.25" y="630.0" type="line"/>
      <point x="771.75" y="630.0" type="line"/>
      <point x="771.75" y="262.25" type="line" smooth="yes"/>
      <point x="771.75" y="139.75"/>
      <point x="853.0" y="77.5"/>
    </contour>
  </outline>
</glyph>
<glyph name="C" format="2">
  <advance width="877.5"/>
  <unicode hex="0043"/>
  <anchor x="530.0" y="0.0" name="bottom"/>
  <anchor x="530.0" y="900.0" name="top"/>
  <outline>
    <contour>
      <point x="496.0" y="-17.0" type="curve"/>
      <point x="496.0" y="141.25" type="line"/>
      <point x="343.5" y="159.0"/>
      <point x="230.5" y="289.75"/>
      <point x="230.5" y="450.0" type="curve" smooth="yes"/>
      <point x="230.5" y="610.25"/>
      <point x="343.5" y="741.0"/>
      <point x="496.0" y="758.75" type="curve"/>
      <point x="496.0" y="917.0" type="line"/>
      <point x="250.0" y="901.5"/>
      <point x="55.5" y="698.75"/>
      <point x="55.5" y="450.0" type="curve" smooth="yes"/>
      <point x="55.5" y="201.25"/>
      <point x="250.0" y="-1.5"/>
    </contour>
    <contour>
      <point x="564.0" y="-17.0" type="line"/>
      <point x="670.5" y="-10.75"/>
      <point x="766.25" y="32.25"/>
      <point x="843.75" y="98.5" type="curve"/>
      <point x="797.25" y="290.5" type="line"/>
      <point x="748.5" y="210.0"/>
      <point x="665.25" y="148.75"/>
      <point x="564.0" y="140.5" type="curve"/>
    </contour>
    <contour>
      <point x="797.25" y="609.5" type="curve"/>
      <point x="843.75" y="801.5" type="line"/>
      <point x="767.0" y="868.5"/>
      <point x="669.75" y="910.75"/>
      <point x="564.0" y="917.0" type="curve"/>
      <point x="564.0" y="759.5" type="line"/>
      <point x="665.75" y="751.25"/>
      <point x="748.5" y="690.0"/>
    </contour>
  </outline>
</glyph>
<glyph name="J" format="2">
  <advance width="555.0"/>
  <unicode hex="004A"/>
  <anchor x="162.75" y="0.0" name="bottom"/>
  <anchor x="381.75" y="900.0" name="top"/>
  <outline>
    <contour>
      <point x="297.0" y="-1.0" type="line"/>
      <point x="391.75" y="32.75"/>
      <point x="465.0" y="117.25"/>
      <point x="465.0" y="264.25" type="curve" smooth="yes"/>
      <point x="465.0" y="900.0" type="line"/>
      <point x="297.0" y="900.0" type="line"/>
    </contour>
    <contour>
      <point x="192.25" y="-18.0" type="curve" smooth="yes"/>
      <point x="205.75" y="-18.0"/>
      <point x="220.0" y="-16.5"/>
      <point x="233.0" y="-13.75" type="curve"/>
      <point x="233.0" y="145.75" type="line"/>
      <point x="216.5" y="137.25"/>
      <point x="197.75" y="133.5"/>
      <point x="177.75" y="133.5" type="curve" smooth="yes"/>
      <point x="125.25" y="133.5"/>
      <point x="82.5" y="161.0"/>
      <point x="55.5" y="204.0" type="curve"/>
      <point x="12.0" y="48.0" type="line"/>
      <point x="57.0" y="2.25"/>
      <point x="125.75" y="-18.0"/>
    </contour>
  </outline>
</glyph>
<glyph name="K" format="2">
  <advance width="795.0"/>
  <unicode hex="004B"/>
  <anchor x="438.0" y="0.0" name="bottom"/>
  <anchor x="400.0" y="900.0" name="top"/>
  <outline>
    <contour>
      <point x="605.0" y="0.0" type="line"/>
      <point x="798.0" y="0.0" type="line"/>
      <point x="425.75" y="597.0" type="line"/>
      <point x="418.75" y="516.0" type="line"/>
      <point x="715.0" y="900.0" type="line"/>
      <point x="527.0" y="900.0" type="line"/>
      <point x="327.0" y="640.25" type="line"/>
      <point x="327.0" y="450.0" type="line"/>
    </contour>
    <contour>
      <point x="103.5" y="0.0" type="line"/>
      <point x="267.0" y="0.0" type="line"/>
      <point x="267.0" y="900.0" type="line"/>
      <point x="103.5" y="900.0" type="line"/>
    </contour>
  </outline>
</glyph>
<glyph name="M" format="2">
  <advance width="1050.0"/>
  <unicode hex="004D"/>
  <outline>
    <contour>
      <point x="525.75" y="135.75" type="line"/>
      <point x="946.5" y="706.75" type="line"/>
      <point x="946.5" y="930.0" type="line"/>
      <point x="529.75" y="386.25" type="line"/>
      <point x="103.5" y="930.0" type="line"/>
      <point x="103.5" y="691.5" type="line"/>
    </contour>
    <contour>
      <point x="103.5" y="0.0" type="line"/>
      <point x="256.5" y="0.0" type="line"/>
      <point x="256.5" y="390.75" type="line"/>
      <point x="103.5" y="591.5" type="line"/>
    </contour>
    <contour>
      <point x="787.5" y="0.0" type="line"/>
      <point x="946.5" y="0.0" type="line"/>
      <point x="946.5" y="606.75" type="line"/>
      <point x="787.5" y="391.75" type="line"/>
    </contour>
  </outline>
</glyph>
<glyph name="P" format="2">
  <advance width="735.0"/>
  <unicode hex="0050"/>
  <outline>
    <contour>
      <point x="322.5" y="295.75" type="line"/>
      <point x="363.25" y="295.75" type="line" smooth="yes"/>
      <point x="611.75" y="295.75"/>
      <point x="700.5" y="464.25"/>
      <point x="700.5" y="597.5" type="curve" smooth="yes"/>
      <point x="700.5" y="733.5"/>
      <point x="610.75" y="900.0"/>
      <point x="363.25" y="900.0" type="curve" smooth="yes"/>
      <point x="322.5" y="900.0" type="line"/>
      <point x="322.5" y="757.5" type="line"/>
      <point x="354.25" y="757.5" type="line" smooth="yes"/>
      <point x="492.25" y="757.5"/>
      <point x="537.0" y="672.0"/>
      <point x="537.0" y="597.5" type="curve" smooth="yes"/>
      <point x="537.0" y="520.5"/>
      <point x="490.5" y="438.25"/>
      <point x="354.25" y="438.25" type="curve" smooth="yes"/>
      <point x="322.5" y="438.25" type="line"/>
    </contour>
    <contour>
      <point x="103.5" y="0.0" type="line"/>
      <point x="262.5" y="0.0" type="line"/>
      <point x="262.5" y="900.0" type="line"/>
      <point x="103.5" y="900.0" type="line"/>
    </contour>
  </outline>
</glyph>
<glyph name="R" format="2">
  <advance width="795.0"/>
  <unicode hex="0052"/>
  <anchor x="439.0" y="0.0" name="bottom"/>
  <anchor x="325.0" y="900.0" name="top"/>
  <outline>
    <contour>
      <point x="602.0" y="0.0" type="line"/>
      <point x="783.0" y="0.0" type="line"/>
      <point x="472.25" y="496.5" type="line"/>
      <point x="325.5" y="496.5" type="line"/>
      <point x="325.5" y="360.0" type="line"/>
      <point x="369.25" y="360.0" type="line" smooth="yes"/>
      <point x="410.25" y="360.0"/>
      <point x="447.75" y="365.75"/>
      <point x="481.25" y="377.25" type="curve"/>
      <point x="330.0" y="444.0" type="line"/>
    </contour>
    <contour>
      <point x="106.5" y="0.0" type="line"/>
      <point x="265.5" y="0.0" type="line"/>
      <point x="265.5" y="900.0" type="line"/>
      <point x="106.5" y="900.0" type="line"/>
    </contour>
    <contour>
      <point x="583.25" y="432.0" type="line"/>
      <point x="639.25" y="479.75"/>
      <point x="671.0" y="547.75"/>
      <point x="671.0" y="625.75" type="curve" smooth="yes"/>
      <point x="671.0" y="773.5"/>
      <point x="558.5" y="900.0"/>
      <point x="369.25" y="900.0" type="curve" smooth="yes"/>
      <point x="325.5" y="900.0" type="line"/>
      <point x="325.5" y="753.0" type="line"/>
      <point x="366.25" y="753.0" type="line" smooth="yes"/>
      <point x="454.25" y="753.0"/>
      <point x="513.5" y="700.0"/>
      <point x="513.5" y="625.75" type="curve" smooth="yes"/>
      <point x="513.5" y="607.0"/>
      <point x="508.25" y="588.75"/>
      <point x="496.25" y="573.25" type="curve"/>
    </contour>
  </outline>
</glyph>
<glyph name="S" format="2">
  <advance width="660.0"/>
  <unicode hex="0053"/>
  <anchor x="318.25" y="0.0" name="bottom"/>
  <anchor x="339.25" y="900.0" name="top"/>
  <outline>
    <contour>
      <point x="355.75" y="-17.0" type="line"/>
      <point x="514.75" y="-3.75"/>
      <point x="615.75" y="109.0"/>
      <point x="615.75" y="255.25" type="curve" smooth="yes"/>
      <point x="615.75" y="414.25"/>
      <point x="495.5" y="482.0"/>
      <point x="428.75" y="515.0" type="curve" smooth="yes"/>
      <point x="320.5" y="568.75" type="line" smooth="yes"/>
      <point x="271.75" y="592.75"/>
      <point x="229.75" y="621.75"/>
      <point x="229.75" y="677.0" type="curve" smooth="yes"/>
      <point x="229.75" y="723.0"/>
      <point x="258.5" y="760.0"/>
      <point x="310.0" y="770.25" type="curve"/>
      <point x="310.0" y="916.0" type="line"/>
      <point x="165.75" y="902.25"/>
      <point x="74.25" y="805.5"/>
      <point x="74.25" y="669.0" type="curve" smooth="yes"/>
      <point x="74.25" y="529.75"/>
      <point x="168.75" y="468.0"/>
      <point x="251.75" y="426.75" type="curve" smooth="yes"/>
      <point x="358.75" y="373.0" type="line" smooth="yes"/>
      <point x="392.75" y="356.0"/>
      <point x="460.25" y="320.75"/>
      <point x="460.25" y="245.25" type="curve" smooth="yes"/>
      <point x="460.25" y="187.25"/>
      <point x="420.0" y="140.75"/>
      <point x="355.75" y="131.0" type="curve"/>
    </contour>
    <contour>
      <point x="295.75" y="-17.0" type="curve"/>
      <point x="295.75" y="131.75" type="line"/>
      <point x="216.0" y="144.75"/>
      <point x="142.75" y="202.0"/>
      <point x="103.75" y="272.0" type="curve"/>
      <point x="58.75" y="87.5" type="line"/>
      <point x="110.75" y="33.75"/>
      <point x="197.75" y="-9.75"/>
    </contour>
    <contour>
      <point x="540.0" y="657.75" type="curve"/>
      <point x="582.75" y="838.5" type="line"/>
      <point x="537.5" y="873.5"/>
      <point x="462.75" y="911.5"/>
      <point x="370.0" y="917.0" type="curve"/>
      <point x="370.0" y="770.0" type="line"/>
      <point x="434.75" y="759.25"/>
      <point x="497.75" y="714.75"/>
    </contour>
  </outline>
</glyph>
<glyph name="U" format="2">
  <advance width="800.0"/>
  <unicode hex="0055"/>
  <anchor x="400.0" y="0.0" name="bottom"/>
  <anchor x="430.0" y="0.0" name="ogonek"/>
  <anchor x="400.0" y="900.0" name="top"/>
  <anchor x="400.0" y="720.0" name="top-vertical"/>
  <anchor x="635.0" y="900.0" name="topright"/>
  <outline>
    <contour>
      <point x="366.25" y="-17.75" type="curve"/>
      <point x="366.25" y="139.25" type="line"/>
      <point x="296.0" y="153.5"/>
      <point x="249.0" y="216.0"/>
      <point x="249.0" y="305.75" type="curve" smooth="yes"/>
      <point x="249.0" y="900.0" type="line"/>
      <point x="81.0" y="900.0" type="line"/>
      <point x="81.0" y="298.0" type="line" smooth="yes"/>
      <point x="81.0" y="113.75"/>
      <point x="199.0" y="-5.5"/>
    </contour>
    <contour>
      <point x="434.25" y="-17.75" type="line"/>
      <point x="603.5" y="-5.25"/>
      <point x="719.0" y="114.25"/>
      <point x="719.0" y="301.25" type="curve" smooth="yes"/>
      <point x="719.0" y="900.0" type="line"/>
      <point x="556.5" y="900.0" type="line"/>
      <point x="556.5" y="300.25" type="line" smooth="yes"/>
      <point x="556.5" y="212.0"/>
      <point x="506.75" y="151.5"/>
      <point x="434.25" y="139.25" type="curve"/>
    </contour>
  </outline>
</glyph>
<glyph name="V" format="2">
  <advance width="765.0"/>
  <unicode hex="0056"/>
  <outline>
    <contour>
      <point x="381.5" y="-30.0" type="line"/>
      <point x="383.5" y="-30.0" type="line"/>
      <point x="466.75" y="175.75" type="line"/>
      <point x="180.0" y="900.0" type="line"/>
      <point x="7.5" y="900.0" type="line"/>
    </contour>
    <contour>
      <point x="499.5" y="259.5" type="line"/>
      <point x="757.5" y="900.0" type="line"/>
      <point x="593.5" y="900.0" type="line"/>
      <point x="420.25" y="460.0" type="line"/>
    </contour>
  </outline>
</glyph>
<glyph name="Z" format="2">
  <advance width="675.0"/>
  <unicode hex="005A"/>
  <anchor x="321.75" y="0.0" name="bottom"/>
  <anchor x="330.75" y="450.0" name="center"/>
  <anchor x="351.75" y="900.0" name="top"/>
  <outline>
    <contour>
      <point x="24.0" y="0.0" type="line"/>
      <point x="193.0" y="0.0" type="line"/>
      <point x="639.0" y="900.0" type="line"/>
      <point x="470.0" y="900.0" type="line"/>
    </contour>
    <contour>
      <point x="258.25" y="0.0" type="line"/>
      <point x="618.75" y="0.0" type="line"/>
      <point x="618.75" y="147.0" type="line"/>
      <point x="330.25" y="147.0" type="line"/>
    </contour>
    <contour>
      <point x="68.25" y="753.0" type="line"/>
      <point x="332.75" y="753.0" type="line"/>
      <point x="404.5" y="900.0" type="line"/>
      <point x="68.25" y="900.0" type="line"/>
    </contour>
  </outline>
</glyph>
<glyph name="backslash" format="2">
  <advance width="540.0"/>
  <unicode hex="005C"/>
  <outline>
    <contour>
      <point x="473.25" y="-180.0" type="line"/>
      <point x="613.5" y="-180.0" type="line"/>
      <point x="67.5" y="960.0" type="line"/>
      <point x="-73.5" y="960.0" type="line"/>
    </contour>
  </outline>
</glyph>
<glyph name="asciicircum" format="2">
  <advance width="750.0"/>
  <unicode hex="005E"/>
  <outline>
    <contour>
      <point x="59.5" y="169.5" type="line"/>
      <point x="201.25" y="169.5" type="line"/>
      <point x="323.75" y="424.5" type="line" smooth="yes"/>
      <point x="341.75" y="461.5"/>
      <point x="358.75" y="504.5"/>
      <point x="375.0" y="545.5" type="curve"/>
      <point x="391.75" y="504.5"/>
      <point x="408.75" y="461.5"/>
      <point x="426.75" y="424.5" type="curve" smooth="yes"/>
      <point x="549.75" y="169.5" type="line"/>
      <point x="690.5" y="169.5" type="line"/>
      <point x="376.0" y="810.0" type="line"/>
    </contour>
  </outline>
</glyph>
<glyph name="n" format="2">
  <advance width="705.0"/>
  <unicode hex="006E"/>
  <anchor x="352.5" y="0.0" name="bottom"/>
  <anchor x="352.5" y="600.0" name="top"/>
  <outline>
    <contour>
      <point x="486.0" y="0.0" type="line"/>
      <point x="643.5" y="0.0" type="line"/>
      <point x="643.5" y="355.5" type="line" smooth="yes"/>
      <point x="643.5" y="522.25"/>
      <point x="527.25" y="618.0"/>
      <point x="400.25" y="618.0" type="curve" smooth="yes"/>
      <point x="360.5" y="618.0"/>
      <point x="323.75" y="608.75"/>
      <point x="291.0" y="591.0" type="curve"/>
      <point x="291.0" y="456.5" type="line"/>
      <point x="310.75" y="469.5"/>
      <point x="334.0" y="475.5"/>
      <point x="358.5" y="475.5" type="curve" smooth="yes"/>
      <point x="439.75" y="475.5"/>
      <point x="486.0" y="408.5"/>
      <point x="486.0" y="334.5" type="curve" smooth="yes"/>
    </contour>
    <contour>
      <point x="73.5" y="0.0" type="line"/>
      <point x="231.0" y="0.0" type="line"/>
      <point x="231.0" y="600.0" type="line"/>
      <point x="73.5" y="600.0" type="line"/>
    </contour>
  </outline>
</glyph>
<glyph name="r" format="2">
  <advance width="457.5"/>
  <unicode hex="0072"/>
  <anchor x="150.0" y="0.0" name="bottom"/>
  <anchor x="252.0" y="600.0" name="top"/>
  <outline>
    <contour>
      <point x="73.5" y="0.0" type="line"/>
      <point x="231.0" y="0.0" type="line"/>
      <point x="231.0" y="600.0" type="line"/>
      <point x="73.5" y="600.0" type="line"/>
    </contour>
    <contour>
      <point x="285.0" y="428.25" type="line"/>
      <point x="319.75" y="456.5"/>
      <point x="357.75" y="469.5"/>
      <point x="402.75" y="469.5" type="curve" smooth="yes"/>
      <point x="417.5" y="469.5"/>
      <point x="433.0" y="467.5"/>
      <point x="446.0" y="463.5" type="curve"/>
      <point x="410.75" y="606.0" type="line"/>
      <point x="364.25" y="606.0"/>
      <point x="324.5" y="594.5"/>
      <point x="285.0" y="569.75" type="curve"/>
    </contour>
  </outline>
</glyph>
<glyph name="u" format="2">
  <advance width="705.0"/>
  <unicode hex="0075"/>
  <anchor x="351.0" y="0.0" name="bottom"/>
  <anchor x="565.0" y="0.0" name="ogonek"/>
  <anchor x="351.0" y="600.0" name="top"/>
  <anchor x="561.0" y="600.0" name="topright"/>
  <outline>
    <contour>
      <point x="304.75" y="-18.0" type="curve" smooth="yes"/>
      <point x="343.5" y="-18.0"/>
      <point x="381.0" y="-8.75"/>
      <point x="414.0" y="8.0" type="curve"/>
      <point x="414.0" y="143.75" type="line"/>
      <point x="394.0" y="131.25"/>
      <point x="370.75" y="124.5"/>
      <point x="346.5" y="124.5" type="curve" smooth="yes"/>
      <point x="265.25" y="124.5"/>
      <point x="219.0" y="191.5"/>
      <point x="219.0" y="265.5" type="curve" smooth="yes"/>
      <point x="219.0" y="600.0" type="line"/>
      <point x="61.5" y="600.0" type="line"/>
      <point x="61.5" y="244.5" type="line" smooth="yes"/>
      <point x="61.5" y="77.75"/>
      <point x="177.75" y="-18.0"/>
    </contour>
    <contour>
      <point x="474.0" y="0.0" type="line"/>
      <point x="631.5" y="0.0" type="line"/>
      <point x="631.5" y="600.0" type="line"/>
      <point x="474.0" y="600.0" type="line"/>
    </contour>
  </outline>
</glyph>
<glyph name="v" format="2">
  <advance width="660.0"/>
  <unicode hex="0076"/>
  <outline>
    <contour>
      <point x="330.0" y="-30.0" type="line"/>
      <point x="410.5" y="128.0" type="line"/>
      <point x="183.0" y="600.0" type="line"/>
      <point x="7.5" y="600.0" type="line"/>
    </contour>
    <contour>
      <point x="444.5" y="193.5" type="line"/>
      <point x="652.5" y="600.0" type="line"/>
      <point x="485.0" y="600.0" type="line"/>
      <point x="367.0" y="354.75" type="line"/>
    </contour>
  </outline>
</glyph>
<glyph name="y" format="2">
  <advance width="680.0"/>
  <unicode hex="0079"/>
  <anchor x="456.5" y="0.0" name="bottom"/>
  <anchor x="342.5" y="600.0" name="top"/>
  <outline>
    <contour>
      <point x="56.0" y="-300.0" type="line"/>
      <point x="225.5" y="-300.0" type="line"/>
      <point x="672.5" y="600.0" type="line"/>
      <point x="505.0" y="600.0" type="line"/>
    </contour>
    <contour>
      <point x="221.75" y="166.25" type="line"/>
      <point x="308.0" y="339.0" type="line"/>
      <point x="303.25" y="349.0"/>
      <point x="298.5" y="359.25"/>
      <point x="293.5" y="370.0" type="curve" smooth="yes"/>
      <point x="182.0" y="600.0" type="line"/>
      <point x="7.5" y="600.0" type="line"/>
    </contour>
  </outline>
</glyph>
<glyph name="section" format="2">
  <advance width="750.0"/>
  <unicode hex="00A7"/>
  <outline>
    <contour>
      <point x="427.25" y="-185.75" type="line"/>
      <point x="538.75" y="-162.75"/>
      <point x="616.5" y="-75.5"/>
      <point x="616.5" y="40.75" type="curve" smooth="yes"/>
      <point x="616.5" y="136.75"/>
      <point x="567.5" y="205.5"/>
      <point x="469.75" y="248.75" type="curve" smooth="yes"/>
      <point x="304.75" y="321.5" type="line" smooth="yes"/>
      <point x="262.25" y="342.75"/>
      <point x="201.75" y="370.0"/>
      <point x="201.75" y="436.25" type="curve" smooth="yes"/>
      <point x="201.75" y="469.75"/>
      <point x="216.75" y="498.75"/>
      <point x="243.0" y="517.75" type="curve"/>
      <point x="128.25" y="569.25" type="line"/>
      <point x="86.25" y="530.75"/>
      <point x="61.5" y="477.5"/>
      <point x="61.5" y="413.25" type="curve" smooth="yes"/>
      <point x="61.5" y="279.25"/>
      <point x="171.5" y="228.5"/>
      <point x="228.5" y="201.75" type="curve" smooth="yes"/>
      <point x="400.5" y="122.0" type="line" smooth="yes"/>
      <point x="423.0" y="111.75"/>
      <point x="476.25" y="85.75"/>
      <point x="476.25" y="27.75" type="curve" smooth="yes"/>
      <point x="476.25" y="-7.0"/>
      <point x="458.25" y="-36.75"/>
      <point x="427.25" y="-52.5" type="curve"/>
    </contour>
    <contour>
      <point x="363.25" y="-192.0" type="curve"/>
      <point x="363.25" y="-65.0" type="line"/>
      <point x="296.5" y="-64.5"/>
      <point x="221.5" y="-13.5"/>
      <point x="189.5" y="41.0" type="curve"/>
      <point x="145.5" y="-111.25" type="line"/>
      <point x="194.5" y="-162.75"/>
      <point x="285.25" y="-192.0"/>
    </contour>
    <contour>
      <point x="623.25" y="253.75" type="line"/>
      <point x="663.75" y="290.75"/>
      <point x="688.5" y="343.25"/>
      <point x="688.5" y="406.0" type="curve" smooth="yes"/>
      <point x="688.5" y="537.75"/>
      <point x="580.75" y="593.25"/>
      <point x="521.5" y="620.5" type="curve" smooth="yes"/>
      <point x="355.0" y="698.25" type="line" smooth="yes"/>
      <point x="327.5" y="711.0"/>
      <point x="297.75" y="733.5"/>
      <point x="297.75" y="773.5" type="curve" smooth="yes"/>
      <point x="297.75" y="803.0"/>
      <point x="313.75" y="828.75"/>
      <point x="343.75" y="839.75" type="curve"/>
      <point x="343.75" y="969.0" type="line"/>
      <point x="231.25" y="952.75"/>
      <point x="157.5" y="868.5"/>
      <point x="157.5" y="759.25" type="curve" smooth="yes"/>
      <point x="157.5" y="676.25"/>
      <point x="194.25" y="611.25"/>
      <point x="291.5" y="568.75" type="curve" smooth="yes"/>
      <point x="441.25" y="502.75" type="line" smooth="yes"/>
      <point x="491.5" y="480.75"/>
      <point x="548.25" y="452.0"/>
      <point x="548.25" y="386.75" type="curve" smooth="yes"/>
      <point x="548.25" y="354.0"/>
      <point x="533.25" y="324.25"/>
      <point x="507.75" y="305.25" type="curve"/>
    </contour>
    <contour>
      <point x="546.5" y="753.25" type="curve"/>
      <point x="587.25" y="899.25" type="line"/>
      <point x="554.5" y="933.5"/>
      <point x="483.75" y="967.0"/>
      <point x="407.75" y="971.25" type="curve"/>
      <point x="407.75" y="843.75" type="line"/>
      <point x="456.75" y="835.75"/>
      <point x="511.25" y="802.5"/>
    </contour>
  </outline>
</glyph>
<glyph name="copyright" format="2">
  <advance width="1260.0"/>
  <unicode hex="00A9"/>
  <outline>
    <contour>
      <point x="662.0" y="-191.0" type="line"/>
      <point x="955.0" y="-176.0"/>
      <point x="1188.0" y="65.0"/>
      <point x="1188.0" y="360.0" type="curve" smooth="yes"/>
      <point x="1188.0" y="655.0"/>
      <point x="955.0" y="896.0"/>
      <point x="662.0" y="911.0" type="curve"/>
      <point x="662.0" y="789.5" type="line"/>
      <point x="884.75" y="774.5"/>
      <point x="1060.5" y="587.75"/>
      <point x="1060.5" y="360.0" type="curve" smooth="yes"/>
      <point x="1060.5" y="132.25"/>
      <point x="884.75" y="-54.5"/>
      <point x="662.0" y="-69.5" type="curve"/>
    </contour>
    <contour>
      <point x="598.0" y="-191.0" type="curve"/>
      <point x="598.0" y="-69.5" type="line"/>
      <point x="375.25" y="-53.75"/>
      <point x="199.5" y="132.25"/>
      <point x="199.5" y="360.0" type="curve" smooth="yes"/>
      <point x="199.5" y="587.75"/>
      <point x="375.25" y="773.5"/>
      <point x="598.0" y="789.5" type="curve"/>
      <point x="598.0" y="911.0" type="line"/>
      <point x="305.0" y="896.0"/>
      <point x="72.0" y="655.0"/>
      <point x="72.0" y="360.0" type="curve" smooth="yes"/>
      <point x="72.0" y="65.0"/>
      <point x="305.0" y="-176.0"/>
    </contour>
    <contour>
      <point x="615.5" y="79.0" type="curve"/>
      <point x="615.5" y="211.0" type="line"/>
      <point x="548.25" y="229.25"/>
      <point x="502.5" y="290.25"/>
      <point x="502.5" y="360.0" type="curve" smooth="yes"/>
      <point x="502.5" y="429.0"/>
      <point x="548.25" y="490.75"/>
      <point x="615.5" y="509.0" type="curve"/>
      <point x="615.5" y="640.25" type="line"/>
      <point x="470.0" y="621.75"/>
      <point x="361.0" y="502.5"/>
      <point x="361.0" y="360.0" type="curve" smooth="yes"/>
      <point x="361.0" y="216.75"/>
      <point x="471.5" y="98.25"/>
    </contour>
    <contour>
      <point x="675.5" y="79.0" type="line"/>
      <point x="742.75" y="83.0"/>
      <point x="804.25" y="107.5"/>
      <point x="852.0" y="150.25" type="curve"/>
      <point x="813.0" y="300.25" type="line"/>
      <point x="785.0" y="253.0"/>
      <point x="736.0" y="214.0"/>
      <point x="675.5" y="208.5" type="curve"/>
    </contour>
    <contour>
      <point x="813.0" y="419.0" type="curve"/>
      <point x="852.0" y="570.5" type="line"/>
      <point x="803.5" y="613.25"/>
      <point x="741.25" y="637.75"/>
      <point x="675.5" y="641.75" type="curve"/>
      <point x="675.5" y="511.5" type="line"/>
      <point x="736.0" y="505.75"/>
      <point x="785.0" y="465.75"/>
    </contour>
  </outline>
</glyph>
<glyph name="ordfeminine" format="2">
  <advance width="480.0"/>
  <unicode hex="00AA"/>
  <outline>
    <contour>
      <point x="216.0" y="412.0" type="curve" smooth="yes"/>
      <point x="231.5" y="412.0"/>
      <point x="246.25" y="414.25"/>
      <point x="259.5" y="418.25" type="curve"/>
      <point x="259.5" y="516.5" type="line"/>
      <point x="251.75" y="514.25"/>
      <point x="243.25" y="512.5"/>
      <point x="234.0" y="512.5" type="curve" smooth="yes"/>
      <point x="186.0" y="512.5"/>
      <point x="147.75" y="551.75"/>
      <point x="147.75" y="600.0" type="curve" smooth="yes"/>
      <point x="147.75" y="648.25"/>
      <point x="186.0" y="687.5"/>
      <point x="234.0" y="687.5" type="curve" smooth="yes"/>
      <point x="243.25" y="687.5"/>
      <point x="251.75" y="685.75"/>
      <point x="259.5" y="683.5" type="curve"/>
      <point x="259.5" y="781.75" type="line"/>
      <point x="246.25" y="785.75"/>
      <point x="231.5" y="788.0"/>
      <point x="216.0" y="788.0" type="curve" smooth="yes"/>
      <point x="117.0" y="788.0"/>
      <point x="36.0" y="704.0"/>
      <point x="36.0" y="600.0" type="curve" smooth="yes"/>
      <point x="36.0" y="496.0"/>
      <point x="116.0" y="412.0"/>
    </contour>
    <contour>
      <point x="315.75" y="420.0" type="line"/>
      <point x="431.25" y="420.0" type="line"/>
      <point x="431.25" y="780.0" type="line"/>
      <point x="315.75" y="780.0" type="line"/>
    </contour>
  </outline>
</glyph>
<glyph name="degree" format="2">
  <advance width="480.0"/>
  <unicode hex="00B0"/>
  <outline>
    <contour>
      <point x="270.0" y="537.5" type="line"/>
      <point x="366.75" y="551.5"/>
      <point x="437.25" y="629.75"/>
      <point x="437.25" y="723.75" type="curve" smooth="yes"/>
      <point x="437.25" y="817.75"/>
      <point x="366.0" y="896.0"/>
      <point x="270.0" y="910.0" type="curve"/>
      <point x="270.0" y="805.25" type="line"/>
      <point x="307.25" y="793.0"/>
      <point x="331.5" y="761.5"/>
      <point x="331.5" y="723.75" type="curve" smooth="yes"/>
      <point x="331.5" y="686.0"/>
      <point x="307.25" y="654.5"/>
      <point x="270.0" y="642.25" type="curve"/>
    </contour>
    <contour>
      <point x="210.0" y="537.5" type="curve"/>
      <point x="210.0" y="642.25" type="line"/>
      <point x="172.75" y="654.5"/>
      <point x="148.5" y="686.0"/>
      <point x="148.5" y="723.75" type="curve" smooth="yes"/>
      <point x="148.5" y="761.5"/>
      <point x="172.0" y="793.0"/>
      <point x="210.0" y="805.25" type="curve"/>
      <point x="210.0" y="910.0" type="line"/>
      <point x="113.25" y="896.0"/>
      <point x="42.75" y="817.75"/>
      <point x="42.75" y="723.75" type="curve" smooth="yes"/>
      <point x="42.75" y="629.75"/>
      <point x="113.25" y="551.5"/>
    </contour>
  </outline>
</glyph>
<glyph name="paragraph" format="2">
  <advance width="750.0"/>
  <unicode hex="00B6"/>
  <outline>
    <contour>
      <point x="358.5" y="371.25" type="curve"/>
      <point x="424.5" y="371.25" type="line"/>
      <point x="424.5" y="960.0" type="line"/>
      <point x="358.5" y="960.0" type="line" smooth="yes"/>
      <point x="120.5" y="960.0"/>
      <point x="34.5" y="795.75"/>
      <point x="34.5" y="663.5" type="curve" smooth="yes"/>
      <point x="34.5" y="546.75"/>
      <point x="117.5" y="376.25"/>
    </contour>
    <contour>
      <point x="292.5" y="-180.0" type="line"/>
      <point x="424.5" y="-180.0" type="line"/>
      <point x="424.5" y="317.25" type="line"/>
      <point x="292.5" y="317.25" type="line"/>
    </contour>
    <contour>
      <point x="535.5" y="-180.0" type="line"/>
      <point x="667.5" y="-180.0" type="line"/>
      <point x="667.5" y="960.0" type="line"/>
      <point x="484.5" y="960.0" type="line"/>
      <point x="484.5" y="841.5" type="line"/>
      <point x="535.5" y="841.5" type="line"/>
    </contour>
  </outline>
</glyph>
<glyph name="Thorn" format="2">
  <advance width="735.0"/>
  <unicode hex="00DE"/>
  <outline>
    <contour>
      <point x="322.5" y="175.75" type="line"/>
      <point x="363.25" y="175.75" type="line" smooth="yes"/>
      <point x="611.75" y="175.75"/>
      <point x="700.5" y="344.25"/>
      <point x="700.5" y="477.5" type="curve" smooth="yes"/>
      <point x="700.5" y="613.5"/>
      <point x="610.75" y="780.0"/>
      <point x="363.25" y="780.0" type="curve" smooth="yes"/>
      <point x="322.5" y="780.0" type="line"/>
      <point x="322.5" y="637.5" type="line"/>
      <point x="354.25" y="637.5" type="line" smooth="yes"/>
      <point x="492.25" y="637.5"/>
      <point x="537.0" y="552.0"/>
      <point x="537.0" y="477.5" type="curve" smooth="yes"/>
      <point x="537.0" y="400.5"/>
      <point x="490.5" y="318.25"/>
      <point x="354.25" y="318.25" type="curve" smooth="yes"/>
      <point x="322.5" y="318.25" type="line"/>
    </contour>
    <contour>
      <point x="103.5" y="0.0" type="line"/>
      <point x="262.5" y="0.0" type="line"/>
      <point x="262.5" y="900.0" type="line"/>
      <point x="103.5" y="900.0" type="line"/>
    </contour>
  </outline>
</glyph>
<glyph name="germandbls" format="2">
  <advance width="712.5"/>
  <unicode hex="00DF"/>
  <outline>
    <contour>
      <point x="73.5" y="0.0" type="line"/>
      <point x="231.0" y="0.0" type="line"/>
      <point x="231.0" y="720.25" type="line" smooth="yes"/>
      <point x="231.0" y="776.25"/>
      <point x="261.5" y="818.0"/>
      <point x="305.25" y="831.0" type="curve"/>
      <point x="305.25" y="976.75" type="line"/>
      <point x="175.75" y="963.75"/>
      <point x="73.5" y="865.5"/>
      <point x="73.5" y="721.0" type="curve" smooth="yes"/>
    </contour>
    <contour>
      <point x="363.25" y="-15.75" type="line"/>
      <point x="528.75" y="-12.25"/>
      <point x="679.5" y="131.0"/>
      <point x="679.5" y="319.25" type="curve" smooth="yes"/>
      <point x="679.5" y="418.75"/>
      <point x="637.5" y="504.25"/>
      <point x="570.5" y="563.0" type="curve"/>
      <point x="538.25" y="528.0"/>
      <point x="496.5" y="499.0"/>
      <point x="446.75" y="474.25" type="curve"/>
      <point x="491.25" y="432.5"/>
      <point x="516.0" y="380.25"/>
      <point x="516.0" y="317.75" type="curve" smooth="yes"/>
      <point x="516.0" y="204.25"/>
      <point x="433.75" y="132.25"/>
      <point x="329.5" y="126.75" type="curve"/>
    </contour>
    <contour>
      <point x="397.5" y="513.0" type="curve"/>
      <point x="554.75" y="593.75"/>
      <point x="587.5" y="668.0"/>
      <point x="587.5" y="744.0" type="curve" smooth="yes"/>
      <point x="587.5" y="868.0"/>
      <point x="493.5" y="963.0"/>
      <point x="365.25" y="976.0" type="curve"/>
      <point x="365.25" y="831.5" type="line"/>
      <point x="409.25" y="818.5"/>
      <point x="439.0" y="778.75"/>
      <point x="439.0" y="727.5" type="curve" smooth="yes"/>
      <point x="439.0" y="665.5"/>
      <point x="392.5" y="604.75"/>
      <point x="304.5" y="557.5" type="curve"/>
      <point x="338.75" y="545.0"/>
      <point x="370.0" y="530.0"/>
    </contour>
  </outline>
</glyph>
<glyph name="ae" format="2">
  <advance width="1140.0"/>
  <unicode hex="00E6"/>
  <anchor x="570.0" y="0.0" name="bottom"/>
  <anchor x="570.0" y="600.0" name="top"/>
  <outline>
    <contour>
      <point x="282.5" y="-12.5" type="curve"/>
      <point x="282.5" y="109.0" type="line"/>
      <point x="224.25" y="113.0"/>
      <point x="189.0" y="143.5"/>
      <point x="189.0" y="186.25" type="curve" smooth="yes"/>
      <point x="189.0" y="236.75"/>
      <point x="239.25" y="265.5"/>
      <point x="320.25" y="265.5" type="curve" smooth="yes"/>
      <point x="350.5" y="265.5"/>
      <point x="383.5" y="261.5"/>
      <point x="414.25" y="254.25" type="curve"/>
      <point x="600.25" y="254.25" type="line"/>
      <point x="596.75" y="269.25"/>
      <point x="595.0" y="285.25"/>
      <point x="595.0" y="302.0" type="curve"/>
      <point x="586.75" y="302.0" type="line"/>
      <point x="586.75" y="400.75"/>
      <point x="645.5" y="474.75"/>
      <point x="728.5" y="487.75" type="curve"/>
      <point x="728.5" y="617.0" type="line"/>
      <point x="659.0" y="609.75"/>
      <point x="598.0" y="581.0"/>
      <point x="549.75" y="536.5" type="curve"/>
      <point x="503.25" y="584.25"/>
      <point x="431.75" y="612.25"/>
      <point x="345.5" y="616.25" type="curve"/>
      <point x="345.5" y="488.5" type="line"/>
      <point x="424.75" y="477.75"/>
      <point x="472.0" y="428.25"/>
      <point x="476.75" y="368.25" type="curve"/>
      <point x="473.25" y="348.0" type="line"/>
      <point x="420.0" y="371.25"/>
      <point x="364.75" y="382.5"/>
      <point x="304.25" y="382.5" type="curve" smooth="yes"/>
      <point x="147.75" y="382.5"/>
      <point x="40.5" y="304.5"/>
      <point x="40.5" y="184.0" type="curve" smooth="yes"/>
      <point x="40.5" y="64.5"/>
      <point x="135.0" y="-12.5"/>
    </contour>
    <contour>
      <point x="728.5" y="-14.25" type="curve"/>
      <point x="728.5" y="122.75" type="line"/>
      <point x="682.25" y="135.0"/>
      <point x="645.25" y="162.75"/>
      <point x="622.5" y="200.25" type="curve"/>
      <point x="467.75" y="200.25" type="line"/>
      <point x="446.5" y="159.0"/>
      <point x="398.75" y="126.0"/>
      <point x="345.5" y="114.0" type="curve"/>
      <point x="345.5" y="-6.75" type="line"/>
      <point x="417.0" y="5.5"/>
      <point x="479.75" y="40.5"/>
      <point x="526.0" y="94.0" type="curve"/>
      <point x="574.75" y="37.0"/>
      <point x="644.5" y="-2.0"/>
    </contour>
    <contour>
      <point x="118.75" y="417.0" type="line"/>
      <point x="161.25" y="454.25"/>
      <point x="217.75" y="482.75"/>
      <point x="282.5" y="488.0" type="curve"/>
      <point x="282.5" y="615.75" type="line"/>
      <point x="210.5" y="609.25"/>
      <point x="141.75" y="585.75"/>
      <point x="85.5" y="551.5" type="curve"/>
    </contour>
    <contour>
      <point x="791.5" y="-18.0" type="line"/>
      <point x="869.5" y="-17.5"/>
      <point x="945.25" y="6.5"/>
      <point x="1004.0" y="51.5" type="curve"/>
      <point x="968.0" y="199.25" type="line"/>
      <point x="929.25" y="151.75"/>
      <point x="866.5" y="116.25"/>
      <point x="791.5" y="115.5" type="curve"/>
    </contour>
    <contour>
      <point x="550.5" y="254.25" type="line"/>
      <point x="1068.0" y="254.25" type="line"/>
      <point x="1068.0" y="311.0" type="line" smooth="yes"/>
      <point x="1068.0" y="475.75"/>
      <point x="949.75" y="602.5"/>
      <point x="791.5" y="616.75" type="curve"/>
      <point x="791.5" y="487.5" type="line"/>
      <point x="874.5" y="474.0"/>
      <point x="930.25" y="402.5"/>
      <point x="930.25" y="303.25" type="curve"/>
      <point x="957.5" y="354.75" type="line"/>
      <point x="916.5" y="366.0"/>
      <point x="875.0" y="371.25"/>
      <point x="825.75" y="371.25" type="curve" smooth="yes"/>
      <point x="694.75" y="371.25" type="line"/>
      <point x="645.25" y="371.25"/>
      <point x="599.25" y="363.25"/>
      <point x="549.75" y="351.25" type="curve"/>
    </contour>
  </outline>
</glyph>
<glyph name="eth" format="2">
  <advance width="725.0"/>
  <unicode hex="00F0"/>
  <anchor x="362.5" y="0.0" name="bottom"/>
  <anchor x="659.5" y="10.0" name="ogonek"/>
  <anchor x="362.5" y="600.0" name="top"/>
  <outline>
    <contour>
      <point x="394.5" y="-17.0" type="line"/>
      <point x="557.5" y="-3.0"/>
      <point x="684.5" y="131.0"/>
      <point x="684.5" y="310.0" type="curve" smooth="yes"/>
      <point x="684.5" y="400.75"/>
      <point x="652.5" y="494.0"/>
      <point x="586.0" y="596.25" type="curve" smooth="yes"/>
      <point x="560.0" y="636.0"/>
      <point x="517.75" y="694.25"/>
      <point x="464.25" y="765.25" type="curve"/>
      <point x="356.25" y="696.25" type="line"/>
      <point x="393.25" y="645.25"/>
      <point x="424.25" y="602.25"/>
      <point x="449.75" y="562.25" type="curve" smooth="yes"/>
      <point x="521.25" y="452.0"/>
      <point x="535.25" y="392.75"/>
      <point x="535.25" y="317.75" type="curve" smooth="yes"/>
      <point x="535.25" y="215.5"/>
      <point x="473.25" y="141.75"/>
      <point x="394.5" y="127.25" type="curve"/>
    </contour>
    <contour>
      <point x="330.5" y="-17.0" type="curve"/>
      <point x="330.5" y="127.25" type="line"/>
      <point x="251.0" y="141.5"/>
      <point x="189.75" y="213.0"/>
      <point x="189.75" y="300.25" type="curve" smooth="yes"/>
      <point x="189.75" y="397.25"/>
      <point x="266.0" y="475.5"/>
      <point x="357.75" y="475.5" type="curve" smooth="yes"/>
      <point x="390.25" y="475.5"/>
      <point x="420.5" y="467.0"/>
      <point x="446.25" y="451.5" type="curve"/>
      <point x="360.75" y="610.0" type="line"/>
      <point x="352.75" y="611.75"/>
      <point x="344.75" y="612.0"/>
      <point x="337.25" y="612.0" type="curve" smooth="yes"/>
      <point x="175.75" y="612.0"/>
      <point x="40.5" y="473.0"/>
      <point x="40.5" y="301.0" type="curve" smooth="yes"/>
      <point x="40.5" y="134.0"/>
      <point x="167.5" y="-1.0"/>
    </contour>
    <contour>
      <point x="178.0" y="651.75" type="line"/>
      <point x="543.0" y="889.5" type="line"/>
      <point x="499.0" y="957.5" type="line"/>
      <point x="373.0" y="876.25" type="line"/>
      <point x="349.75" y="904.5"/>
      <point x="326.0" y="932.5"/>
      <point x="302.5" y="960.0" type="curve"/>
      <point x="133.0" y="960.0" type="line"/>
      <point x="178.5" y="908.25"/>
      <point x="222.75" y="856.75"/>
      <point x="264.75" y="805.75" type="curve"/>
      <point x="134.0" y="720.75" type="line"/>
    </contour>
  </outline>
</glyph>
<glyph name="kgreenlandic" format="2">
  <advance width="660.0"/>
  <unicode hex="0138"/>
  <anchor x="346.0" y="0.0" name="bottom"/>
  <anchor x="300.0" y="600.0" name="top"/>
  <outline>
    <contour>
      <point x="470.5" y="0.0" type="line"/>
      <point x="658.5" y="0.0" type="line"/>
      <point x="376.75" y="371.25" type="line"/>
      <point x="363.25" y="298.0" type="line"/>
      <point x="598.5" y="600.0" type="line"/>
      <point x="427.0" y="600.0" type="line"/>
      <point x="291.0" y="421.0" type="line"/>
      <point x="291.0" y="238.25" type="line"/>
    </contour>
    <contour>
      <point x="73.5" y="0.0" type="line"/>
      <point x="226.5" y="0.0" type="line"/>
      <point x="226.5" y="600.0" type="line"/>
      <point x="73.5" y="600.0" type="line"/>
    </contour>
  </outline>
</glyph>
<glyph name="lslash" format="2">
  <advance width="367.5"/>
  <unicode hex="0142"/>
  <outline>
    <contour>
      <point x="30.0" y="327.5" type="line"/>
      <point x="379.25" y="557.5" type="line"/>
      <point x="331.5" y="632.5" type="line"/>
      <point x="262.5" y="587.0" type="line"/>
      <point x="262.5" y="960.0" type="line"/>
      <point x="105.0" y="960.0" type="line"/>
      <point x="105.0" y="483.0" type="line"/>
      <point x="-17.75" y="402.5" type="line"/>
    </contour>
    <contour>
      <point x="105.0" y="0.0" type="line"/>
      <point x="262.5" y="0.0" type="line"/>
      <point x="262.5" y="404.75" type="line"/>
      <point x="105.0" y="301.5" type="line"/>
    </contour>
  </outline>
</glyph>
<glyph name="eng" format="2">
  <advance width="705.0"/>
  <unicode hex="014B"/>
  <outline>
    <contour>
      <point x="443.5" y="-312.0" type="line"/>
      <point x="558.25" y="-312.0"/>
      <point x="643.5" y="-236.5"/>
      <point x="643.5" y="-105.25" type="curve" smooth="yes"/>
      <point x="643.5" y="355.5" type="line" smooth="yes"/>
      <point x="643.5" y="522.25"/>
      <point x="527.25" y="618.0"/>
      <point x="400.25" y="618.0" type="curve" smooth="yes"/>
      <point x="360.5" y="618.0"/>
      <point x="323.75" y="608.75"/>
      <point x="291.0" y="591.0" type="curve"/>
      <point x="291.0" y="456.5" type="line"/>
      <point x="310.75" y="469.5"/>
      <point x="334.0" y="475.5"/>
      <point x="358.5" y="475.5" type="curve" smooth="yes"/>
      <point x="439.75" y="475.5"/>
      <point x="486.0" y="408.5"/>
      <point x="486.0" y="334.5" type="curve" smooth="yes"/>
      <point x="486.0" y="-104.75" type="line" smooth="yes"/>
      <point x="486.0" y="-162.0"/>
      <point x="459.75" y="-184.5"/>
      <point x="413.25" y="-184.5" type="curve"/>
    </contour>
    <contour>
      <point x="73.5" y="0.0" type="line"/>
      <point x="231.0" y="0.0" type="line"/>
      <point x="231.0" y="600.0" type="line"/>
      <point x="73.5" y="600.0" type="line"/>
    </contour>
  </outline>
</glyph>
<glyph name="oe" format="2">
  <advance width="1157.5"/>
  <unicode hex="0153"/>
  <anchor x="578.75" y="0.0" name="bottom"/>
  <anchor x="578.75" y="600.0" name="top"/>
  <outline>
    <contour>
      <point x="332.0" y="-17.0" type="curve"/>
      <point x="332.0" y="127.25" type="line"/>
      <point x="250.0" y="141.5"/>
      <point x="189.75" y="213.5"/>
      <point x="189.75" y="300.0" type="curve" smooth="yes"/>
      <point x="189.75" y="387.25"/>
      <point x="250.5" y="458.5"/>
      <point x="331.75" y="472.75" type="curve"/>
      <point x="331.75" y="617.0" type="line"/>
      <point x="168.25" y="601.75"/>
      <point x="40.5" y="466.0"/>
      <point x="40.5" y="300.0" type="curve" smooth="yes"/>
      <point x="40.5" y="134.0"/>
      <point x="168.25" y="-1.25"/>
    </contour>
    <contour>
      <point x="528.75" y="254.25" type="curve"/>
      <point x="655.25" y="254.25" type="line"/>
      <point x="651.75" y="269.25"/>
      <point x="650.0" y="285.25"/>
      <point x="650.0" y="302.0" type="curve"/>
      <point x="641.75" y="302.0" type="line"/>
      <point x="641.75" y="400.25"/>
      <point x="700.25" y="473.5"/>
      <point x="783.0" y="488.25" type="curve"/>
      <point x="783.0" y="616.75" type="line"/>
      <point x="707.25" y="609.25"/>
      <point x="640.0" y="575.0"/>
      <point x="590.25" y="524.0" type="curve"/>
      <point x="539.0" y="575.5"/>
      <point x="470.5" y="609.75"/>
      <point x="393.0" y="617.0" type="curve"/>
      <point x="393.0" y="472.75" type="line"/>
      <point x="474.25" y="458.5"/>
      <point x="535.25" y="387.25"/>
      <point x="535.25" y="300.0" type="curve" smooth="yes"/>
      <point x="535.25" y="284.0"/>
      <point x="532.75" y="268.75"/>
    </contour>
    <contour>
      <point x="605.5" y="254.25" type="line"/>
      <point x="1123.0" y="254.25" type="line"/>
      <point x="1123.0" y="311.0" type="line" smooth="yes"/>
      <point x="1123.0" y="476.0"/>
      <point x="1004.25" y="602.75"/>
      <point x="844.75" y="617.0" type="curve"/>
      <point x="844.75" y="488.5" type="line"/>
      <point x="928.5" y="473.5"/>
      <point x="984.25" y="402.0"/>
      <point x="984.25" y="303.5" type="curve"/>
      <point x="1011.5" y="354.75" type="line"/>
      <point x="970.5" y="366.0"/>
      <point x="929.0" y="371.25"/>
      <point x="879.75" y="371.25" type="curve" smooth="yes"/>
      <point x="750.5" y="371.25" type="line" smooth="yes"/>
      <point x="701.0" y="371.25"/>
      <point x="655.0" y="363.25"/>
      <point x="605.5" y="351.25" type="curve"/>
    </contour>
    <contour>
      <point x="393.0" y="-17.0" type="line"/>
      <point x="471.5" y="-9.75"/>
      <point x="542.0" y="25.5"/>
      <point x="593.25" y="78.25" type="curve"/>
      <point x="646.0" y="25.0"/>
      <point x="720.0" y="-9.5"/>
      <point x="808.25" y="-16.75" type="curve"/>
      <point x="808.25" y="118.5" type="line"/>
      <point x="750.5" y="127.25"/>
      <point x="704.5" y="157.0"/>
      <point x="678.25" y="200.25" type="curve"/>
      <point x="503.25" y="200.25" type="line"/>
      <point x="478.25" y="162.0"/>
      <point x="438.75" y="135.0"/>
      <point x="393.0" y="127.25" type="curve"/>
    </contour>
    <contour>
      <point x="871.0" y="-17.0" type="line"/>
      <point x="941.75" y="-11.75"/>
      <point x="1006.5" y="12.0"/>
      <point x="1059.0" y="51.5" type="curve"/>
      <point x="1023.0" y="199.25" type="line"/>
      <point x="988.75" y="157.0"/>
      <point x="935.75" y="124.0"/>
      <point x="871.0" y="116.75" type="curve"/>
    </contour>
  </outline>
</glyph>
<glyph name="ohorn" format="2">
  <advance width="770.0"/>
  <unicode hex="01A1"/>
  <anchor x="362.5" y="0.0" name="bottom"/>
  <anchor x="362.5" y="600.0" name="top"/>
  <outline>
    <contour>
      <point x="396.5" y="-17.0" type="line"/>
      <point x="558.5" y="-2.0"/>
      <point x="684.5" y="134.0"/>
      <point x="684.5" y="300.0" type="curve" smooth="yes"/>
      <point x="684.5" y="466.0"/>
      <point x="558.5" y="602.0"/>
      <point x="396.5" y="617.0" type="curve"/>
      <point x="396.5" y="472.75" type="line"/>
      <point x="475.25" y="458.5"/>
      <point x="535.25" y="387.25"/>
      <point x="535.25" y="300.0" type="curve" smooth="yes"/>
      <point x="535.25" y="212.75"/>
      <point x="475.25" y="141.5"/>
      <point x="396.5" y="127.25" type="curve"/>
    </contour>
    <contour>
      <point x="328.5" y="-17.0" type="curve"/>
      <point x="328.5" y="127.25" type="line"/>
      <point x="248.75" y="141.5"/>
      <point x="189.75" y="212.75"/>
      <point x="189.75" y="300.0" type="curve" smooth="yes"/>
      <point x="189.75" y="387.25"/>
      <point x="248.75" y="458.5"/>
      <point x="328.5" y="472.75" type="curve"/>
      <point x="328.5" y="617.0" type="line"/>
      <point x="166.5" y="602.0"/>
      <point x="40.5" y="466.0"/>
      <point x="40.5" y="300.0" type="curve" smooth="yes"/>
      <point x="40.5" y="134.0"/>
      <point x="166.5" y="-2.0"/>
    </contour>
    <contour>
      <point x="723.25" y="405.25" type="curve"/>
      <point x="683.5" y="418.0" type="line"/>
      <point x="728.5" y="443.0"/>
      <point x="761.0" y="494.25"/>
      <point x="761.0" y="568.0" type="curve" smooth="yes"/>
      <point x="761.0" y="597.0"/>
      <point x="756.0" y="628.0"/>
      <point x="737.0" y="660.0" type="curve"/>
      <point x="606.5" y="660.0" type="line"/>
      <point x="625.5" y="627.0"/>
      <point x="630.5" y="592.0"/>
      <point x="630.5" y="568.0" type="curve" smooth="yes"/>
      <point x="630.5" y="548.75"/>
      <point x="627.25" y="532.5"/>
      <point x="621.25" y="519.5" type="curve"/>
      <point x="596.75" y="588.5" type="line"/>
      <point x="656.75" y="541.75"/>
      <point x="701.5" y="480.25"/>
    </contour>
  </outline>
</glyph>
<glyph name="Uhorn" format="2">
  <advance width="935.0"/>
  <unicode hex="01AF"/>
  <anchor x="400.0" y="0.0" name="bottom"/>
  <anchor x="400.0" y="900.0" name="top"/>
  <outline>
    <contour>
      <point x="434.25" y="-17.75" type="line"/>
      <point x="603.5" y="-5.25"/>
      <point x="719.0" y="114.25"/>
      <point x="719.0" y="301.25" type="curve" smooth="yes"/>
      <point x="719.0" y="900.0" type="line"/>
      <point x="556.5" y="900.0" type="line"/>
      <point x="556.5" y="300.25" type="line" smooth="yes"/>
      <point x="556.5" y="212.0"/>
      <point x="506.75" y="151.5"/>
      <point x="434.25" y="139.25" type="curve"/>
    </contour>
    <contour>
      <point x="366.25" y="-17.75" type="curve"/>
      <point x="366.25" y="139.25" type="line"/>
      <point x="296.0" y="153.5"/>
      <point x="249.0" y="216.0"/>
      <point x="249.0" y="305.75" type="curve" smooth="yes"/>
      <point x="249.0" y="900.0" type="line"/>
      <point x="81.0" y="900.0" type="line"/>
      <point x="81.0" y="298.0" type="line" smooth="yes"/>
      <point x="81.0" y="113.75"/>
      <point x="199.0" y="-5.5"/>
    </contour>
    <contour>
      <point x="773.0" y="684.5" type="line"/>
      <point x="852.75" y="689.0"/>
      <point x="926.0" y="753.0"/>
      <point x="926.0" y="866.5" type="curve" smooth="yes"/>
      <point x="926.0" y="896.25"/>
      <point x="921.0" y="927.25"/>
      <point x="902.0" y="960.0" type="curve"/>
      <point x="774.5" y="960.0" type="line"/>
      <point x="793.5" y="927.0"/>
      <point x="798.5" y="892.0"/>
      <point x="798.5" y="868.0" type="curve" smooth="yes"/>
      <point x="798.5" y="838.5"/>
      <point x="788.5" y="817.0"/>
      <point x="773.0" y="805.25" type="curve"/>
    </contour>
  </outline>
</glyph>
<glyph name="Gstroke" format="2">
  <advance width="925.0"/>
  <unicode hex="01E4"/>
  <outline>
    <contour>
      <point x="537.25" y="-18.0" type="curve" smooth="yes"/>
      <point x="568.0" y="-18.0"/>
      <point x="596.75" y="-15.0"/>
      <point x="625.0" y="-7.5" type="curve"/>
      <point x="625.0" y="148.75" type="line"/>
      <point x="598.0" y="137.75"/>
      <point x="568.5" y="133.5"/>
      <point x="535.0" y="133.5" type="curve" smooth="yes"/>
      <point x="358.5" y="133.5"/>
      <point x="226.0" y="267.5"/>
      <point x="226.0" y="448.5" type="curve" smooth="yes"/>
      <point x="226.0" y="617.25"/>
      <point x="342.25" y="747.25"/>
      <point x="502.0" y="762.5" type="curve"/>
      <point x="502.0" y="917.0" type="line"/>
      <point x="250.0" y="902.5"/>
      <point x="55.5" y="704.0"/>
      <point x="55.5" y="448.5" type="curve" smooth="yes"/>
      <point x="55.5" y="182.25"/>
      <point x="267.25" y="-18.0"/>
    </contour>
    <contour>
      <point x="689.0" y="2.5" type="line"/>
      <point x="742.5" y="17.25"/>
      <point x="794.75" y="41.25"/>
      <point x="839.5" y="71.25" type="curve"/>
      <point x="839.5" y="311.25" type="line"/>
      <point x="910.0" y="311.25" type="line"/>
      <point x="910.0" y="426.75" type="line"/>
      <point x="839.5" y="426.75" type="line"/>
      <point x="839.5" y="498.0" type="line"/>
      <point x="689.0" y="498.0" type="line"/>
      <point x="689.0" y="426.75" type="line"/>
      <point x="490.0" y="426.75" type="line"/>
      <point x="490.0" y="311.25" type="line"/>
      <point x="689.0" y="311.25" type="line"/>
    </contour>
    <contour>
      <point x="807.0" y="612.5" type="curve"/>
      <point x="853.5" y="801.5" type="line"/>
      <point x="776.75" y="868.5"/>
      <point x="678.75" y="910.75"/>
      <point x="570.0" y="917.0" type="curve"/>
      <point x="570.0" y="762.5" type="line"/>
      <point x="675.75" y="752.75"/>
      <point x="757.5" y="692.0"/>
    </contour>
  </outline>
</glyph>
<glyph name="schwa" format="2">
  <advance width="695.0"/>
  <unicode hex="0259"/>
  <anchor x="347.5" y="0.0" name="bottom"/>
  <anchor x="61.5" y="590.0" name="ogonek"/>
  <anchor x="347.5" y="600.0" name="top"/>
  <outline>
    <contour>
      <point x="134.5" y="400.75" type="line"/>
      <point x="168.75" y="443.0"/>
      <point x="221.75" y="476.0"/>
      <point x="286.5" y="483.25" type="curve"/>
      <point x="286.5" y="617.0" type="line"/>
      <point x="215.75" y="611.75"/>
      <point x="151.0" y="588.0"/>
      <point x="98.5" y="548.5" type="curve"/>
    </contour>
    <contour>
      <point x="373.75" y="-17.0" type="line"/>
      <point x="532.75" y="-2.0"/>
      <point x="654.5" y="126.5"/>
      <point x="654.5" y="294.0" type="curve" smooth="yes"/>
      <point x="654.5" y="471.25"/>
      <point x="530.75" y="603.75"/>
      <point x="350.5" y="617.0" type="curve"/>
      <point x="350.5" y="482.5" type="line"/>
      <point x="445.75" y="468.25"/>
      <point x="507.5" y="394.0"/>
      <point x="507.5" y="298.0" type="curve"/>
      <point x="515.75" y="298.0" type="line"/>
      <point x="515.75" y="199.5"/>
      <point x="457.25" y="126.0"/>
      <point x="373.75" y="111.5" type="curve"/>
    </contour>
    <contour>
      <point x="312.75" y="-17.0" type="curve"/>
      <point x="312.75" y="111.5" type="line"/>
      <point x="229.0" y="126.5"/>
      <point x="173.25" y="198.0"/>
      <point x="173.25" y="296.5" type="curve"/>
      <point x="146.0" y="245.25" type="line"/>
      <point x="187.0" y="234.0"/>
      <point x="228.5" y="228.75"/>
      <point x="277.75" y="228.75" type="curve" smooth="yes"/>
      <point x="407.0" y="228.75" type="line" smooth="yes"/>
      <point x="456.5" y="228.75"/>
      <point x="502.5" y="236.75"/>
      <point x="552.0" y="248.75" type="curve"/>
      <point x="552.0" y="325.75" type="line"/>
      <point x="502.5" y="337.75"/>
      <point x="456.5" y="345.75"/>
      <point x="407.0" y="345.75" type="curve" smooth="yes"/>
      <point x="34.5" y="345.75" type="line"/>
      <point x="34.5" y="289.0" type="line" smooth="yes"/>
      <point x="34.5" y="124.0"/>
      <point x="153.25" y="-2.75"/>
    </contour>
  </outline>
</glyph>
<glyph name="ezh" format="2">
  <advance width="660.0"/>
  <unicode hex="0292"/>
  <anchor x="304.25" y="-315.0" name="bottom"/>
  <anchor x="322.25" y="600.0" name="top"/>
  <outline>
    <contour>
      <point x="323.75" y="-317.0" type="line"/>
      <point x="487.75" y="-302.0"/>
      <point x="621.5" y="-171.75"/>
      <point x="621.5" y="-4.5" type="curve" smooth="yes"/>
      <point x="621.5" y="133.25"/>
      <point x="530.25" y="243.75"/>
      <point x="410.5" y="282.0" type="curve"/>
      <point x="581.0" y="600.0" type="line"/>
      <point x="419.25" y="600.0" type="line"/>
      <point x="182.5" y="139.25" type="line"/>
      <point x="217.75" y="158.0"/>
      <point x="252.25" y="168.0"/>
      <point x="291.5" y="168.0" type="curve" smooth="yes"/>
      <point x="394.75" y="168.0"/>
      <point x="467.0" y="92.5"/>
      <point x="467.0" y="-0.75" type="curve" smooth="yes"/>
      <point x="467.0" y="-86.5"/>
      <point x="405.5" y="-155.75"/>
      <point x="323.75" y="-169.0" type="curve"/>
    </contour>
    <contour>
      <point x="264.5" y="-317.0" type="curve"/>
      <point x="264.5" y="-168.25" type="line"/>
      <point x="184.25" y="-155.25"/>
      <point x="123.75" y="-90.25"/>
      <point x="106.25" y="-11.5" type="curve"/>
      <point x="21.5" y="-178.5" type="line"/>
      <point x="73.75" y="-255.25"/>
      <point x="161.75" y="-308.75"/>
    </contour>
    <contour>
      <point x="83.0" y="459.0" type="line"/>
      <point x="281.5" y="459.0" type="line"/>
      <point x="353.25" y="600.0" type="line"/>
      <point x="83.0" y="600.0" type="line"/>
    </contour>
  </outline>
</glyph>
<glyph name="hookabovecomb" format="2">
  <unicode hex="0309"/>
  <anchor x="360.0" y="600.0" name="_top"/>
  <outline>
    <contour>
      <point x="311.5" y="681.0" type="curve"/>
      <point x="444.0" y="681.0" type="line"/>
      <point x="470.0" y="710.25"/>
      <point x="492.75" y="747.75"/>
      <point x="492.75" y="795.75" type="curve" smooth="yes"/>
      <point x="492.75" y="872.75"/>
      <point x="423.0" y="918.75"/>
      <point x="337.25" y="918.75" type="curve" smooth="yes"/>
      <point x="287.25" y="918.75"/>
      <point x="238.75" y="902.0"/>
      <point x="213.5" y="881.5" type="curve"/>
      <point x="241.25" y="780.75" type="line"/>
      <point x="257.0" y="798.25"/>
      <point x="282.75" y="815.25"/>
      <point x="307.75" y="815.25" type="curve" smooth="yes"/>
      <point x="340.25" y="815.25"/>
      <point x="359.75" y="796.0"/>
      <point x="359.75" y="769.5" type="curve" smooth="yes"/>
      <point x="359.75" y="746.0"/>
      <point x="343.0" y="717.5"/>
    </contour>
  </outline>
</glyph>
<glyph name="caroncomb" format="2">
  <unicode hex="030C"/>
  <anchor x="360.0" y="600.0" name="_top"/>
  <outline>
    <contour>
      <point x="360.0" y="672.0" type="line"/>
      <point x="571.5" y="909.0" type="line"/>
      <point x="425.5" y="909.0" type="line"/>
      <point x="402.0" y="884.0"/>
      <point x="384.25" y="859.75"/>
      <point x="362.0" y="827.75" type="curve"/>
      <point x="339.75" y="859.75"/>
      <point x="322.0" y="884.0"/>
      <point x="298.5" y="909.0" type="curve"/>
      <point x="148.5" y="909.0" type="line"/>
    </contour>
  </outline>
</glyph>
<glyph name="breveinvertedcomb" format="2">
  <unicode hex="0311"/>
  <anchor x="360.0" y="600.0" name="_top"/>
  <anchor x="360.0" y="849.0" name="top"/>
  <outline>
    <contour>
      <point x="162.0" y="666.0" type="curve"/>
      <point x="280.5" y="666.0" type="line"/>
      <point x="280.5" y="710.0"/>
      <point x="317.25" y="745.5"/>
      <point x="360.0" y="745.5" type="curve" smooth="yes"/>
      <point x="402.75" y="745.5"/>
      <point x="439.5" y="710.0"/>
      <point x="439.5" y="666.0" type="curve"/>
      <point x="558.0" y="666.0" type="line"/>
      <point x="558.0" y="774.75"/>
      <point x="470.5" y="858.0"/>
      <point x="360.0" y="858.0" type="curve" smooth="yes"/>
      <point x="248.5" y="858.0"/>
      <point x="162.0" y="776.5"/>
    </contour>
  </outline>
</glyph>
<glyph name="slashshortcomb" format="2">
  <unicode hex="0337"/>
  <anchor x="278.0" y="300.0" name="_center"/>
  <outline>
    <contour>
      <point x="76.5" y="222.5" type="line"/>
      <point x="124.25" y="147.5" type="line"/>
      <point x="473.5" y="377.5" type="line"/>
      <point x="425.75" y="452.5" type="line"/>
    </contour>
  </outline>
</glyph>
<glyph name="quoteleft" format="2">
  <advance width="285.0"/>
  <unicode hex="2018"/>
  <outline>
    <contour>
      <point x="41.75" y="577.5" type="curve"/>
      <point x="194.75" y="577.5" type="line"/>
      <point x="194.75" y="715.25"/>
      <point x="236.25" y="820.0"/>
      <point x="294.0" y="900.0" type="curve"/>
      <point x="132.75" y="900.0" type="line"/>
      <point x="72.5" y="809.0"/>
      <point x="41.75" y="700.5"/>
    </contour>
  </outline>
</glyph>
<glyph name="dagger" format="2">
  <advance width="600.0"/>
  <unicode hex="2020"/>
  <outline>
    <contour>
      <point x="63.0" y="568.5" type="line"/>
      <point x="537.0" y="568.5" type="line"/>
      <point x="537.0" y="692.25" type="line"/>
      <point x="357.5" y="680.25" type="line"/>
      <point x="374.25" y="900.0" type="line"/>
      <point x="225.75" y="900.0" type="line"/>
      <point x="243.25" y="680.25" type="line"/>
      <point x="63.0" y="692.25" type="line"/>
    </contour>
    <contour>
      <point x="225.75" y="0.0" type="line"/>
      <point x="374.25" y="0.0" type="line"/>
      <point x="361.5" y="514.5" type="line"/>
      <point x="239.25" y="514.5" type="line"/>
    </contour>
  </outline>
</glyph>
<glyph name="trademark" format="2">
  <advance width="840.0"/>
  <unicode hex="2122"/>
  <outline>
    <contour>
      <point x="586.0" y="546.0" type="line"/>
      <point x="787.5" y="790.25" type="line"/>
      <point x="787.5" y="933.0" type="line"/>
      <point x="588.0" y="697.0" type="line"/>
      <point x="388.5" y="930.0" type="line"/>
      <point x="388.5" y="786.0" type="line"/>
    </contour>
    <contour>
      <point x="126.75" y="540.0" type="line"/>
      <point x="233.25" y="540.0" type="line"/>
      <point x="233.25" y="756.0" type="line"/>
      <point x="126.75" y="756.0" type="line"/>
    </contour>
    <contour>
      <point x="28.5" y="804.0" type="line"/>
      <point x="331.5" y="804.0" type="line"/>
      <point x="331.5" y="900.0" type="line"/>
      <point x="28.5" y="900.0" type="line"/>
    </contour>
    <contour>
      <point x="388.5" y="540.0" type="line"/>
      <point x="489.0" y="540.0" type="line"/>
      <point x="489.0" y="586.5" type="line"/>
      <point x="388.5" y="708.0" type="line"/>
    </contour>
    <contour>
      <point x="681.0" y="540.0" type="line"/>
      <point x="787.5" y="540.0" type="line"/>
      <point x="787.5" y="711.0" type="line"/>
      <point x="681.0" y="583.25" type="line"/>
    </contour>
  </outline>
</glyph>
<glyph name="minus" format="2">
  <advance width="750.0"/>
  <unicode hex="2212"/>
  <outline>
    <contour>
      <point x="82.5" y="384.5" type="line"/>
      <point x="667.5" y="384.5" type="line"/>
      <point x="667.5" y="515.5" type="line"/>
      <point x="82.5" y="515.5" type="line"/>
    </contour>
  </outline>
</glyph>
<glyph name="approxequal" format="2">
  <advance width="750.0"/>
  <unicode hex="2248"/>
  <outline>
    <contour>
      <point x="99.75" y="451.5" type="line"/>
      <point x="128.25" y="514.75"/>
      <point x="171.0" y="555.0"/>
      <point x="230.5" y="555.0" type="curve" smooth="yes"/>
      <point x="316.0" y="555.0"/>
      <point x="397.75" y="471.0"/>
      <point x="511.25" y="471.0" type="curve" smooth="yes"/>
      <point x="594.5" y="471.0"/>
      <point x="669.0" y="516.75"/>
      <point x="710.25" y="595.0" type="curve"/>
      <point x="645.0" y="706.5" type="line"/>
      <point x="616.5" y="643.25"/>
      <point x="573.75" y="603.0"/>
      <point x="514.25" y="603.0" type="curve" smooth="yes"/>
      <point x="428.75" y="603.0"/>
      <point x="347.0" y="687.0"/>
      <point x="233.5" y="687.0" type="curve" smooth="yes"/>
      <point x="150.25" y="687.0"/>
      <point x="75.75" y="641.25"/>
      <point x="34.5" y="563.0" type="curve"/>
    </contour>
    <contour>
      <point x="99.75" y="193.5" type="line"/>
      <point x="128.25" y="256.75"/>
      <point x="171.0" y="297.0"/>
      <point x="230.5" y="297.0" type="curve" smooth="yes"/>
      <point x="316.0" y="297.0"/>
      <point x="397.75" y="213.0"/>
      <point x="511.25" y="213.0" type="curve" smooth="yes"/>
      <point x="594.5" y="213.0"/>
      <point x="669.0" y="258.75"/>
      <point x="710.25" y="337.0" type="curve"/>
      <point x="645.0" y="448.5" type="line"/>
      <point x="616.5" y="385.25"/>
      <point x="573.75" y="345.0"/>
      <point x="514.25" y="345.0" type="curve" smooth="yes"/>
      <point x="428.75" y="345.0"/>
      <point x="347.0" y="429.0"/>
      <point x="233.5" y="429.0" type="curve" smooth="yes"/>
      <point x="150.25" y="429.0"/>
      <point x="75.75" y="383.25"/>
      <point x="34.5" y="305.0" type="curve"/>
    </contour>
  </outline>
</glyph>
<glyph name="a.ss02" format="2">
  <advance width="675.0"/>
  <anchor x="333.0" y="0.0" name="bottom"/>
  <anchor x="556.0" y="0.0" name="ogonek"/>
  <anchor x="342.0" y="600.0" name="top"/>
  <outline>
    <contour>
      <point x="267.5" y="-12.5" type="curve" smooth="yes"/>
      <point x="322.0" y="-12.5"/>
      <point x="373.5" y="1.25"/>
      <point x="416.0" y="26.75" type="curve"/>
      <point x="416.0" y="145.75" type="line"/>
      <point x="382.75" y="123.0"/>
      <point x="339.5" y="109.0"/>
      <point x="295.5" y="109.0" type="curve" smooth="yes"/>
      <point x="229.0" y="109.0"/>
      <point x="189.0" y="140.75"/>
      <point x="189.0" y="186.25" type="curve" smooth="yes"/>
      <point x="189.0" y="236.75"/>
      <point x="239.25" y="265.5"/>
      <point x="320.25" y="265.5" type="curve" smooth="yes"/>
      <point x="351.5" y="265.5"/>
      <point x="385.0" y="261.5"/>
      <point x="416.0" y="254.0" type="curve"/>
      <point x="416.0" y="363.75" type="line"/>
      <point x="380.5" y="373.25"/>
      <point x="344.0" y="378.0"/>
      <point x="304.25" y="378.0" type="curve" smooth="yes"/>
      <point x="147.75" y="378.0"/>
      <point x="40.5" y="300.75"/>
      <point x="40.5" y="181.75" type="curve" smooth="yes"/>
      <point x="40.5" y="66.75"/>
      <point x="135.0" y="-12.5"/>
    </contour>
    <contour>
      <point x="118.75" y="412.5" type="line"/>
      <point x="161.75" y="449.0"/>
      <point x="223.0" y="474.75"/>
      <point x="286.5" y="479.5" type="curve"/>
      <point x="286.5" y="610.75" type="line"/>
      <point x="212.75" y="605.5"/>
      <point x="142.25" y="582.5"/>
      <point x="85.5" y="547.0" type="curve"/>
    </contour>
    <contour>
      <point x="476.0" y="0.0" type="line"/>
      <point x="613.5" y="0.0" type="line"/>
      <point x="613.5" y="372.5" type="line" smooth="yes"/>
      <point x="613.5" y="511.0"/>
      <point x="508.25" y="603.75"/>
      <point x="350.5" y="612.25" type="curve"/>
      <point x="350.5" y="478.0" type="line"/>
      <point x="428.75" y="466.75"/>
      <point x="476.0" y="417.0"/>
      <point x="476.0" y="352.5" type="curve" smooth="yes"/>
    </contour>
  </outline>
</glyph>
<glyph name="bracketleft.titl" format="2">
  <advance width="480.0"/>
  <outline>
    <contour>
      <point x="132.5" y="-180.0" type="line"/>
      <point x="420.0" y="-180.0" type="line"/>
      <point x="420.0" y="-114.0" type="line"/>
      <point x="204.0" y="-114.0" type="line"/>
      <point x="204.0" y="894.0" type="line"/>
      <point x="420.0" y="894.0" type="line"/>
      <point x="420.0" y="960.0" type="line"/>
      <point x="132.5" y="960.0" type="line"/>
    </contour>
  </outline>
</glyph>
<glyph name="bracketright.titl" format="2">
  <advance width="480.0"/>
  <outline>
    <contour>
      <point x="60.0" y="-180.0" type="line"/>
      <point x="347.5" y="-180.0" type="line"/>
      <point x="347.5" y="960.0" type="line"/>
      <point x="60.0" y="960.0" type="line"/>
      <point x="60.0" y="894.0" type="line"/>
      <point x="276.0" y="894.0" type="line"/>
      <point x="276.0" y="-114.0" type="line"/>
      <point x="60.0" y="-114.0" type="line"/>
    </contour>
  </outline>
</glyph>
<glyph name="brevecomb_tildecomb" format="2">
  <anchor x="360.0" y="600.0" name="_top"/>
  <outline>
    <contour>
      <point x="200.75" y="895.0" type="line"/>
      <point x="216.75" y="934.75"/>
      <point x="243.25" y="958.25"/>
      <point x="280.75" y="958.25" type="curve" smooth="yes"/>
      <point x="332.0" y="958.25"/>
      <point x="379.0" y="913.0"/>
      <point x="440.5" y="913.0" type="curve" smooth="yes"/>
      <point x="488.5" y="913.0"/>
      <point x="530.75" y="939.5"/>
      <point x="554.25" y="986.25" type="curve"/>
      <point x="519.25" y="1087.0" type="line"/>
      <point x="503.25" y="1047.5"/>
      <point x="476.75" y="1023.75"/>
      <point x="439.25" y="1023.75" type="curve" smooth="yes"/>
      <point x="388.0" y="1023.75"/>
      <point x="341.0" y="1069.25"/>
      <point x="279.5" y="1069.25" type="curve" smooth="yes"/>
      <point x="231.5" y="1069.25"/>
      <point x="189.25" y="1042.5"/>
      <point x="165.75" y="995.75" type="curve"/>
    </contour>
    <contour>
      <point x="360.0" y="666.0" type="curve" smooth="yes"/>
      <point x="471.5" y="666.0"/>
      <point x="558.0" y="747.5"/>
      <point x="558.0" y="858.0" type="curve"/>
      <point x="447.0" y="858.0" type="line"/>
      <point x="447.0" y="809.5"/>
      <point x="406.5" y="771.0"/>
      <point x="360.0" y="771.0" type="curve" smooth="yes"/>
      <point x="313.5" y="771.0"/>
      <point x="273.0" y="809.5"/>
      <point x="273.0" y="858.0" type="curve"/>
      <point x="162.0" y="858.0" type="line"/>
      <point x="162.0" y="749.25"/>
      <point x="249.5" y="666.0"/>
    </contour>
  </outline>
</glyph>
<glyph name="circumflexcomb_acutecomb" format="2">
  <anchor x="360.0" y="600.0" name="_top"/>
  <outline>
    <contour>
      <point x="148.5" y="681.0" type="line"/>
      <point x="294.5" y="681.0" type="line"/>
      <point x="318.0" y="706.0"/>
      <point x="335.75" y="730.25"/>
      <point x="358.0" y="762.25" type="curve"/>
      <point x="380.25" y="730.25"/>
      <point x="398.0" y="706.0"/>
      <point x="421.5" y="681.0" type="curve"/>
      <point x="571.5" y="681.0" type="line"/>
      <point x="360.0" y="918.0" type="line"/>
    </contour>
    <contour>
      <point x="491.25" y="819.0" type="line"/>
      <point x="606.75" y="819.0" type="line"/>
      <point x="716.0" y="969.0" type="line"/>
      <point x="562.0" y="969.0" type="line"/>
    </contour>
  </outline>
</glyph>
<glyph name="circumflexcomb_gravecomb" format="2">
  <anchor x="360.0" y="600.0" name="_top"/>
  <outline>
    <contour>
      <point x="148.5" y="681.0" type="line"/>
      <point x="294.5" y="681.0" type="line"/>
      <point x="318.0" y="706.0"/>
      <point x="335.75" y="730.25"/>
      <point x="358.0" y="762.25" type="curve"/>
      <point x="380.25" y="730.25"/>
      <point x="398.0" y="706.0"/>
      <point x="421.5" y="681.0" type="curve"/>
      <point x="571.5" y="681.0" type="line"/>
      <point x="360.0" y="918.0" type="line"/>
    </contour>
    <contour>
      <point x="565.25" y="819.0" type="line"/>
      <point x="680.75" y="819.0" type="line"/>
      <point x="610.0" y="969.0" type="line"/>
      <point x="456.0" y="969.0" type="line"/>
    </contour>
  </outline>
</glyph>
<glyph name="dek.lf" format="2">
  <advance width="690.0"/>
  <outline>
    <contour>
      <point x="322.0" y="-16.75" type="curve"/>
      <point x="322.0" y="132.75" type="line"/>
      <point x="263.5" y="145.75"/>
      <point x="220.75" y="196.75"/>
      <point x="220.75" y="259.25" type="curve" smooth="yes"/>
      <point x="220.75" y="286.75"/>
      <point x="229.5" y="316.0"/>
      <point x="261.0" y="363.0" type="curve" smooth="yes"/>
      <point x="625.75" y="900.0" type="line"/>
      <point x="455.5" y="900.75" type="line"/>
      <point x="133.75" y="444.25" type="line" smooth="yes"/>
      <point x="84.0" y="374.25"/>
      <point x="63.25" y="321.5"/>
      <point x="63.25" y="259.25" type="curve" smooth="yes"/>
      <point x="63.25" y="115.25"/>
      <point x="179.0" y="-2.25"/>
    </contour>
    <contour>
      <point x="386.0" y="-16.0" type="line"/>
      <point x="530.0" y="-1.25"/>
      <point x="639.25" y="119.0"/>
      <point x="639.25" y="258.5" type="curve" smooth="yes"/>
      <point x="639.25" y="300.5"/>
      <point x="629.0" y="339.5"/>
      <point x="608.0" y="378.0" type="curve"/>
      <point x="426.75" y="378.0" type="line"/>
      <point x="466.25" y="345.0"/>
      <point x="486.25" y="303.75"/>
      <point x="486.25" y="259.25" type="curve" smooth="yes"/>
      <point x="486.25" y="196.75"/>
      <point x="443.5" y="145.0"/>
      <point x="386.0" y="132.0" type="curve"/>
    </contour>
    <contour>
      <point x="50.75" y="753.0" type="line"/>
      <point x="284.75" y="753.0" type="line"/>
      <point x="388.75" y="900.0" type="line"/>
      <point x="50.75" y="900.0" type="line"/>
    </contour>
  </outline>
</glyph>
<glyph name="dek.numr" format="2">
  <advance width="480.0"/>
  <outline>
    <contour>
      <point x="224.5" y="405.75" type="curve"/>
      <point x="224.5" y="521.0" type="line"/>
      <point x="204.25" y="530.5"/>
      <point x="193.5" y="549.5"/>
      <point x="193.5" y="573.25" type="curve" smooth="yes"/>
      <point x="193.5" y="594.5"/>
      <point x="201.5" y="613.25"/>
      <point x="228.5" y="647.75" type="curve" smooth="yes"/>
      <point x="428.75" y="900.0" type="line"/>
      <point x="296.5" y="900.0" type="line"/>
      <point x="134.0" y="702.5" type="line"/>
      <point x="91.25" y="651.0"/>
      <point x="73.0" y="612.75"/>
      <point x="73.0" y="570.0" type="curve" smooth="yes"/>
      <point x="73.0" y="487.5"/>
      <point x="135.25" y="418.25"/>
    </contour>
    <contour>
      <point x="280.5" y="405.75" type="line"/>
      <point x="368.0" y="418.5"/>
      <point x="429.75" y="485.5"/>
      <point x="429.75" y="570.25" type="curve" smooth="yes"/>
      <point x="429.75" y="593.75"/>
      <point x="425.75" y="608.25"/>
      <point x="419.0" y="627.0" type="curve"/>
      <point x="292.5" y="627.0" type="line"/>
      <point x="305.75" y="609.75"/>
      <point x="312.25" y="594.0"/>
      <point x="312.25" y="575.0" type="curve" smooth="yes"/>
      <point x="312.25" y="550.5"/>
      <point x="301.0" y="530.75"/>
      <point x="280.5" y="520.75" type="curve"/>
    </contour>
    <contour>
      <point x="50.25" y="794.5" type="line"/>
      <point x="147.5" y="794.5" type="line"/>
      <point x="235.0" y="900.0" type="line"/>
      <point x="50.25" y="900.0" type="line"/>
    </contour>
  </outline>
</glyph>
<glyph name="dieresiscomb.vertical" format="2">
  <anchor x="360.0" y="528.75" name="_top-vertical"/>
  <outline>
    <contour>
      <point x="360.0" y="328.5" type="curve" smooth="yes"/>
      <point x="405.0" y="328.5"/>
      <point x="440.25" y="363.75"/>
      <point x="440.25" y="408.75" type="curve" smooth="yes"/>
      <point x="440.25" y="452.75"/>
      <point x="405.0" y="489.0"/>
      <point x="360.0" y="489.0" type="curve" smooth="yes"/>
      <point x="316.0" y="489.0"/>
      <point x="279.75" y="452.75"/>
      <point x="279.75" y="408.75" type="curve" smooth="yes"/>
      <point x="279.75" y="363.75"/>
      <point x="316.0" y="328.5"/>
    </contour>
    <contour>
      <point x="360.0" y="568.5" type="curve" smooth="yes"/>
      <point x="405.0" y="568.5"/>
      <point x="440.25" y="603.75"/>
      <point x="440.25" y="648.75" type="curve" smooth="yes"/>
      <point x="440.25" y="692.75"/>
      <point x="405.0" y="729.0"/>
      <point x="360.0" y="729.0" type="curve" smooth="yes"/>
      <point x="316.0" y="729.0"/>
      <point x="279.75" y="692.75"/>
      <point x="279.75" y="648.75" type="curve" smooth="yes"/>
      <point x="279.75" y="603.75"/>
      <point x="316.0" y="568.5"/>
    </contour>
  </outline>
</glyph>
<glyph name="dotaccentcomb_macroncomb" format="2">
  <anchor x="360.0" y="600.0" name="_top"/>
  <outline>
    <contour>
      <point x="360.0" y="693.0" type="curve" smooth="yes"/>
      <point x="409.5" y="693.0"/>
      <point x="447.0" y="731.5"/>
      <point x="447.0" y="780.0" type="curve" smooth="yes"/>
      <point x="447.0" y="829.5"/>
      <point x="409.5" y="867.0"/>
      <point x="360.0" y="867.0" type="curve" smooth="yes"/>
      <point x="311.5" y="867.0"/>
      <point x="273.0" y="829.5"/>
      <point x="273.0" y="780.0" type="curve" smooth="yes"/>
      <point x="273.0" y="731.5"/>
      <point x="311.5" y="693.0"/>
    </contour>
    <contour>
      <point x="180.0" y="933.75" type="line"/>
      <point x="540.0" y="933.75" type="line"/>
      <point x="540.0" y="1043.25" type="line"/>
      <point x="180.0" y="1043.25" type="line"/>
    </contour>
  </outline>
</glyph>
<glyph name="eight.numr" format="2">
  <advance width="480.0"/>
  <outline>
    <contour>
      <point x="268.0" y="404.5" type="line"/>
      <point x="366.5" y="411.25"/>
      <point x="444.5" y="473.0"/>
      <point x="444.5" y="569.5" type="curve" smooth="yes"/>
      <point x="444.5" y="643.5"/>
      <point x="397.0" y="702.0"/>
      <point x="331.25" y="724.0" type="curve"/>
      <point x="352.0" y="682.5" type="line"/>
      <point x="382.25" y="701.25"/>
      <point x="406.0" y="736.0"/>
      <point x="406.0" y="779.5" type="curve" smooth="yes"/>
      <point x="406.0" y="860.5"/>
      <point x="351.25" y="908.75"/>
      <point x="268.0" y="915.5" type="curve"/>
      <point x="268.0" y="822.5" type="line"/>
      <point x="288.5" y="814.75"/>
      <point x="301.75" y="796.25"/>
      <point x="301.75" y="774.75" type="curve" smooth="yes"/>
      <point x="301.75" y="753.25"/>
      <point x="288.5" y="734.75"/>
      <point x="268.0" y="727.0" type="curve"/>
      <point x="268.0" y="655.5" type="line"/>
      <point x="302.75" y="646.75"/>
      <point x="326.5" y="617.75"/>
      <point x="326.5" y="581.0" type="curve" smooth="yes"/>
      <point x="326.5" y="544.25"/>
      <point x="302.75" y="515.25"/>
      <point x="268.0" y="506.5" type="curve"/>
    </contour>
    <contour>
      <point x="212.0" y="404.5" type="curve"/>
      <point x="212.0" y="506.5" type="line"/>
      <point x="175.75" y="515.25"/>
      <point x="153.5" y="545.0"/>
      <point x="153.5" y="581.0" type="curve" smooth="yes"/>
      <point x="153.5" y="617.0"/>
      <point x="175.75" y="646.75"/>
      <point x="212.0" y="655.5" type="curve"/>
      <point x="212.0" y="727.0" type="line"/>
      <point x="190.75" y="735.0"/>
      <point x="178.25" y="754.0"/>
      <point x="178.25" y="774.75" type="curve" smooth="yes"/>
      <point x="178.25" y="795.5"/>
      <point x="190.75" y="814.5"/>
      <point x="212.0" y="822.5" type="curve"/>
      <point x="212.0" y="915.5" type="line"/>
      <point x="128.0" y="906.5"/>
      <point x="74.0" y="850.0"/>
      <point x="74.0" y="779.5" type="curve" smooth="yes"/>
      <point x="74.0" y="736.0"/>
      <point x="96.75" y="701.25"/>
      <point x="128.0" y="682.5" type="curve"/>
      <point x="148.75" y="724.0" type="line"/>
      <point x="83.0" y="702.0"/>
      <point x="35.5" y="643.5"/>
      <point x="35.5" y="569.5" type="curve" smooth="yes"/>
      <point x="35.5" y="474.75"/>
      <point x="117.25" y="413.0"/>
    </contour>
  </outline>
</glyph>
<glyph name="el.lf" format="2">
  <advance width="690.0"/>
  <outline>
    <contour>
      <point x="92.25" y="0.0" type="line"/>
      <point x="252.75" y="0.0" type="line"/>
      <point x="499.5" y="477.5" type="line"/>
      <point x="467.25" y="462.25"/>
      <point x="437.0" y="455.75"/>
      <point x="401.0" y="455.75" type="curve" smooth="yes"/>
      <point x="309.0" y="455.75"/>
      <point x="242.5" y="526.0"/>
      <point x="242.5" y="613.75" type="curve" smooth="yes"/>
      <point x="242.5" y="693.25"/>
      <point x="297.0" y="756.75"/>
      <point x="371.25" y="769.75" type="curve"/>
      <point x="371.25" y="917.0" type="line"/>
      <point x="214.75" y="902.0"/>
      <point x="88.0" y="773.5"/>
      <point x="88.0" y="613.5" type="curve" smooth="yes"/>
      <point x="88.0" y="470.5"/>
      <point x="189.5" y="357.25"/>
      <point x="318.5" y="331.0" type="curve"/>
      <point x="304.0" y="395.25" type="line"/>
    </contour>
    <contour>
      <point x="319.5" y="0.0" type="line"/>
      <point x="639.25" y="0.0" type="line"/>
      <point x="639.25" y="142.5" type="line"/>
      <point x="392.0" y="142.5" type="line"/>
    </contour>
    <contour>
      <point x="575.25" y="626.25" type="curve"/>
      <point x="658.5" y="789.25" type="line"/>
      <point x="608.5" y="860.25"/>
      <point x="527.5" y="908.0"/>
      <point x="435.25" y="917.0" type="curve"/>
      <point x="435.25" y="769.5" type="line"/>
      <point x="505.0" y="756.5"/>
      <point x="557.5" y="698.5"/>
    </contour>
  </outline>
</glyph>
<glyph name="el.numr" format="2">
  <advance width="480.0"/>
  <outline>
    <contour>
      <point x="60.75" y="420.0" type="line"/>
      <point x="181.5" y="420.0" type="line"/>
      <point x="336.75" y="688.25" type="line"/>
      <point x="318.0" y="678.75"/>
      <point x="298.25" y="671.75"/>
      <point x="275.0" y="671.75" type="curve" smooth="yes"/>
      <point x="223.25" y="671.75"/>
      <point x="199.25" y="706.0"/>
      <point x="199.25" y="741.5" type="curve" smooth="yes"/>
      <point x="199.25" y="772.0"/>
      <point x="215.5" y="796.25"/>
      <point x="245.25" y="805.75" type="curve"/>
      <point x="245.25" y="914.5" type="line"/>
      <point x="148.75" y="903.25"/>
      <point x="78.0" y="834.0"/>
      <point x="78.0" y="745.0" type="curve" smooth="yes"/>
      <point x="78.0" y="669.25"/>
      <point x="127.5" y="607.0"/>
      <point x="205.5" y="586.75" type="curve"/>
      <point x="191.0" y="644.0" type="line"/>
    </contour>
    <contour>
      <point x="241.25" y="420.0" type="line"/>
      <point x="429.75" y="420.0" type="line"/>
      <point x="429.75" y="525.5" type="line"/>
      <point x="302.0" y="525.5" type="line"/>
    </contour>
    <contour>
      <point x="366.75" y="740.75" type="curve"/>
      <point x="428.25" y="846.0" type="line"/>
      <point x="402.0" y="880.0"/>
      <point x="356.5" y="906.5"/>
      <point x="301.25" y="914.5" type="curve"/>
      <point x="301.25" y="807.0" type="line"/>
      <point x="334.25" y="796.25"/>
      <point x="357.0" y="769.75"/>
    </contour>
  </outline>
</glyph>
<glyph name="endash.titl.case" format="2">
  <advance width="720.0"/>
  <outline>
    <contour>
      <point x="60.0" y="416.25" type="line"/>
      <point x="660.0" y="416.25" type="line"/>
      <point x="660.0" y="483.75" type="line"/>
      <point x="60.0" y="483.75" type="line"/>
    </contour>
  </outline>
</glyph>
<glyph name="gravecomb.case" format="2">
  <anchor x="450.0" y="900.0" name="_top"/>
  <anchor x="281.25" y="1179.0" name="top"/>
  <outline>
    <contour>
      <point x="382.5" y="981.0" type="line"/>
      <point x="531.0" y="981.0" type="line"/>
      <point x="380.25" y="1179.0" type="line"/>
      <point x="182.25" y="1179.0" type="line"/>
    </contour>
  </outline>
</glyph>
<glyph name="guilsinglright.case" format="2">
  <advance width="360.0"/>
  <outline>
    <contour>
      <point x="176.25" y="210.0" type="line"/>
      <point x="338.25" y="450.0" type="line"/>
      <point x="176.25" y="690.0" type="line"/>
      <point x="27.75" y="690.0" type="line"/>
      <point x="189.75" y="450.0" type="line"/>
      <point x="27.75" y="210.0" type="line"/>
    </contour>
  </outline>
</glyph>
<glyph name="h.hbar" format="2">
  <advance width="705.0"/>
  <anchor x="360.0" y="0.0" name="bottom"/>
  <anchor x="147.75" y="780.0" name="center"/>
  <anchor x="147.75" y="960.0" name="top"/>
  <outline>
    <contour>
      <point x="226.5" y="331.5" type="line"/>
      <point x="226.5" y="425.5"/>
      <point x="290.25" y="475.5"/>
      <point x="358.5" y="475.5" type="curve" smooth="yes"/>
      <point x="442.75" y="475.5"/>
      <point x="490.5" y="406.25"/>
      <point x="490.5" y="329.25" type="curve" smooth="yes"/>
      <point x="490.5" y="0.0" type="line"/>
      <point x="643.5" y="0.0" type="line"/>
      <point x="643.5" y="355.5" type="line" smooth="yes"/>
      <point x="643.5" y="522.25"/>
      <point x="527.25" y="618.0"/>
      <point x="400.25" y="618.0" type="curve" smooth="yes"/>
      <point x="272.0" y="618.0"/>
      <point x="164.5" y="523.25"/>
      <point x="164.5" y="351.5" type="curve"/>
    </contour>
    <contour>
      <point x="73.5" y="0.0" type="line"/>
      <point x="226.5" y="0.0" type="line"/>
      <point x="226.5" y="417.25" type="line"/>
      <point x="220.5" y="445.5" type="line"/>
      <point x="220.5" y="960.0" type="line"/>
      <point x="73.5" y="960.0" type="line"/>
    </contour>
  </outline>
</glyph>
<glyph name="hyphen.case" format="2">
  <advance width="375.0"/>
  <outline>
    <contour>
      <point x="30.0" y="384.0" type="line"/>
      <point x="345.0" y="384.0" type="line"/>
      <point x="345.0" y="516.0" type="line"/>
      <point x="30.0" y="516.0" type="line"/>
    </contour>
  </outline>
</glyph>
<glyph name="hyphen.titl.case" format="2">
  <advance width="360.0"/>
  <outline>
    <contour>
      <point x="30.0" y="417.25" type="line"/>
      <point x="330.0" y="417.25" type="line"/>
      <point x="330.0" y="482.75" type="line"/>
      <point x="30.0" y="482.75" type="line"/>
    </contour>
  </outline>
</glyph>
<glyph name="l.lslash" format="2">
  <advance width="307.5"/>
  <anchor x="153.75" y="0.0" name="bottom"/>
  <anchor x="153.75" y="480.0" name="center"/>
  <anchor x="363.75" y="420.0" name="periodcentered"/>
  <anchor x="153.75" y="960.0" name="top"/>
  <anchor x="232.5" y="960.0" name="topright"/>
  <outline>
    <contour>
      <point x="75.0" y="391.5" type="line"/>
      <point x="232.5" y="494.75" type="line"/>
      <point x="232.5" y="960.0" type="line"/>
      <point x="75.0" y="960.0" type="line"/>
    </contour>
    <contour>
      <point x="205.5" y="306.0" type="line"/>
      <point x="102.0" y="220.5" type="line"/>
      <point x="102.0" y="98.75" type="line"/>
      <point x="205.5" y="81.0" type="line"/>
    </contour>
  </outline>
</glyph>
<glyph name="l.ss03" format="2">
  <advance width="330.0"/>
  <anchor x="150.0" y="0.0" name="bottom"/>
  <anchor x="150.0" y="480.0" name="center"/>
  <anchor x="363.75" y="420.0" name="periodcentered"/>
  <anchor x="150.0" y="960.0" name="top"/>
  <anchor x="228.75" y="960.0" name="topright"/>
  <outline>
    <contour>
      <point x="270.5" y="-12.0" type="curve"/>
      <point x="300.75" y="115.5" type="line"/>
      <point x="255.0" y="115.5"/>
      <point x="228.75" y="138.0"/>
      <point x="228.75" y="195.25" type="curve" smooth="yes"/>
      <point x="228.75" y="960.0" type="line"/>
      <point x="71.25" y="960.0" type="line"/>
      <point x="71.25" y="194.75" type="line" smooth="yes"/>
      <point x="71.25" y="63.5"/>
      <point x="155.0" y="-12.0"/>
    </contour>
  </outline>
</glyph>
<glyph name="multiply.titl" format="2">
  <advance width="750.0"/>
  <outline>
    <contour>
      <point x="571.5" y="200.5" type="line"/>
      <point x="624.5" y="253.5" type="line"/>
      <point x="178.5" y="699.5" type="line"/>
      <point x="125.5" y="646.5" type="line"/>
    </contour>
    <contour>
      <point x="176.0" y="200.5" type="line"/>
      <point x="624.5" y="649.0" type="line"/>
      <point x="574.0" y="699.5" type="line"/>
      <point x="125.5" y="251.0" type="line"/>
    </contour>
  </outline>
</glyph>
<glyph name="ogonekcomb.A" format="2">
  <anchor x="403.0" y="0.0" name="_ogonek"/>
  <outline>
    <contour>
      <point x="466.25" y="-316.5" type="curve"/>
      <point x="494.25" y="-197.25" type="line"/>
      <point x="447.0" y="-196.5"/>
      <point x="411.75" y="-173.25"/>
      <point x="411.75" y="-120.5" type="curve" smooth="yes"/>
      <point x="411.75" y="-96.5"/>
      <point x="419.0" y="-75.25"/>
      <point x="430.75" y="-54.0" type="curve"/>
      <point x="298.5" y="-54.0" type="line"/>
      <point x="278.75" y="-94.5"/>
      <point x="274.25" y="-125.5"/>
      <point x="274.25" y="-153.0" type="curve" smooth="yes"/>
      <point x="274.25" y="-263.0"/>
      <point x="357.5" y="-316.5"/>
    </contour>
  </outline>
</glyph>
<glyph name="one.numr" format="2">
  <advance width="480.0"/>
  <outline>
    <contour>
      <point x="100.5" y="684.5" type="line"/>
      <point x="340.5" y="804.5" type="line"/>
      <point x="340.5" y="929.0" type="line"/>
      <point x="100.5" y="809.0" type="line"/>
    </contour>
    <contour>
      <point x="214.5" y="420.0" type="line"/>
      <point x="340.5" y="420.0" type="line"/>
      <point x="340.5" y="746.5" type="line"/>
      <point x="214.5" y="684.0" type="line"/>
    </contour>
  </outline>
</glyph>
<glyph name="parenleft.titl" format="2">
  <advance width="480.0"/>
  <outline>
    <contour>
      <point x="286.0" y="-180.0" type="curve"/>
      <point x="370.5" y="-180.0" type="line"/>
      <point x="260.75" y="-19.0"/>
      <point x="199.75" y="176.0"/>
      <point x="199.75" y="390.0" type="curve" smooth="yes"/>
      <point x="199.75" y="604.0"/>
      <point x="260.75" y="799.0"/>
      <point x="370.5" y="960.0" type="curve"/>
      <point x="286.0" y="960.0" type="line"/>
      <point x="185.0" y="793.0"/>
      <point x="126.0" y="598.0"/>
      <point x="126.0" y="390.0" type="curve" smooth="yes"/>
      <point x="126.0" y="182.0"/>
      <point x="185.0" y="-13.0"/>
    </contour>
  </outline>
</glyph>
<glyph name="ringcomb_acutecomb" format="2">
  <anchor x="360.0" y="600.0" name="_top"/>
  <outline>
    <contour>
      <point x="304.5" y="960.0" type="line"/>
      <point x="420.0" y="960.0" type="line"/>
      <point x="509.0" y="1089.0" type="line"/>
      <point x="365.0" y="1089.0" type="line"/>
    </contour>
    <contour>
      <point x="387.0" y="648.75" type="line"/>
      <point x="454.0" y="660.5"/>
      <point x="502.5" y="712.75"/>
      <point x="502.5" y="780.0" type="curve" smooth="yes"/>
      <point x="502.5" y="846.25"/>
      <point x="449.75" y="898.5"/>
      <point x="387.0" y="910.5" type="curve"/>
      <point x="387.0" y="829.5" type="line"/>
      <point x="408.0" y="819.5"/>
      <point x="422.25" y="801.25"/>
      <point x="422.25" y="780.0" type="curve" smooth="yes"/>
      <point x="422.25" y="758.75"/>
      <point x="408.75" y="739.75"/>
      <point x="387.0" y="730.5" type="curve"/>
    </contour>
    <contour>
      <point x="333.0" y="649.5" type="curve"/>
      <point x="333.0" y="730.5" type="line"/>
      <point x="311.0" y="739.75"/>
      <point x="297.75" y="758.75"/>
      <point x="297.75" y="780.0" type="curve" smooth="yes"/>
      <point x="297.75" y="801.25"/>
      <point x="311.0" y="820.25"/>
      <point x="333.0" y="829.5" type="curve"/>
      <point x="333.0" y="910.5" type="line"/>
      <point x="266.25" y="898.5"/>
      <point x="217.5" y="846.25"/>
      <point x="217.5" y="780.0" type="curve" smooth="yes"/>
      <point x="217.5" y="713.75"/>
      <point x="266.25" y="661.5"/>
    </contour>
  </outline>
</glyph>
<glyph name="seven.numr" format="2">
  <advance width="480.0"/>
  <outline>
    <contour>
      <point x="79.5" y="420.0" type="line"/>
      <point x="211.5" y="420.0" type="line"/>
      <point x="448.5" y="900.0" type="line"/>
      <point x="318.0" y="900.0" type="line"/>
    </contour>
    <contour>
      <point x="72.5" y="790.0" type="line"/>
      <point x="203.0" y="790.0" type="line"/>
      <point x="258.0" y="900.0" type="line"/>
      <point x="72.5" y="900.0" type="line"/>
    </contour>
  </outline>
</glyph>
<glyph name="six.numr" format="2">
  <advance width="480.0"/>
  <outline>
    <contour>
      <point x="212.0" y="405.5" type="curve"/>
      <point x="212.0" y="511.75" type="line"/>
      <point x="180.0" y="523.75"/>
      <point x="159.75" y="552.25"/>
      <point x="159.75" y="585.25" type="curve" smooth="yes"/>
      <point x="159.75" y="601.75"/>
      <point x="163.75" y="616.25"/>
      <point x="176.25" y="640.0" type="curve" smooth="yes"/>
      <point x="311.25" y="900.0" type="line"/>
      <point x="187.5" y="900.0" type="line"/>
      <point x="66.25" y="675.0" type="line" smooth="yes"/>
      <point x="52.5" y="648.5"/>
      <point x="43.75" y="617.0"/>
      <point x="43.75" y="586.5" type="curve" smooth="yes"/>
      <point x="43.75" y="493.25"/>
      <point x="116.5" y="418.75"/>
    </contour>
    <contour>
      <point x="268.0" y="405.5" type="line"/>
      <point x="363.5" y="418.5"/>
      <point x="436.25" y="491.75"/>
      <point x="436.25" y="585.25" type="curve" smooth="yes"/>
      <point x="436.25" y="672.25"/>
      <point x="374.0" y="739.25"/>
      <point x="293.25" y="756.0" type="curve"/>
      <point x="245.0" y="666.5" type="line"/>
      <point x="290.75" y="663.25"/>
      <point x="320.25" y="625.5"/>
      <point x="320.25" y="585.25" type="curve" smooth="yes"/>
      <point x="320.25" y="552.25"/>
      <point x="299.0" y="523.75"/>
      <point x="268.0" y="511.75" type="curve"/>
    </contour>
  </outline>
</glyph>
<glyph name="two.numr" format="2">
  <advance width="480.0"/>
  <outline>
    <contour>
      <point x="51.25" y="420.0" type="line"/>
      <point x="183.5" y="420.0" type="line"/>
      <point x="346.0" y="617.5" type="line"/>
      <point x="388.75" y="669.0"/>
      <point x="407.0" y="707.25"/>
      <point x="407.0" y="750.0" type="curve" smooth="yes"/>
      <point x="407.0" y="832.75"/>
      <point x="344.5" y="901.5"/>
      <point x="256.5" y="914.5" type="curve"/>
      <point x="256.5" y="799.25" type="line"/>
      <point x="275.5" y="789.0"/>
      <point x="286.5" y="770.5"/>
      <point x="286.5" y="746.75" type="curve" smooth="yes"/>
      <point x="286.5" y="725.5"/>
      <point x="278.5" y="706.75"/>
      <point x="251.5" y="672.25" type="curve" smooth="yes"/>
    </contour>
    <contour>
      <point x="244.25" y="420.0" type="line"/>
      <point x="429.75" y="420.0" type="line"/>
      <point x="429.75" y="525.5" type="line"/>
      <point x="331.5" y="525.5" type="line"/>
    </contour>
    <contour>
      <point x="61.0" y="693.0" type="curve"/>
      <point x="187.5" y="693.0" type="line"/>
      <point x="174.25" y="710.25"/>
      <point x="167.75" y="726.0"/>
      <point x="167.75" y="745.0" type="curve" smooth="yes"/>
      <point x="167.75" y="770.25"/>
      <point x="179.0" y="790.0"/>
      <point x="200.5" y="800.0" type="curve"/>
      <point x="200.5" y="914.5" type="line"/>
      <point x="112.0" y="901.5"/>
      <point x="50.25" y="835.25"/>
      <point x="50.25" y="749.75" type="curve" smooth="yes"/>
      <point x="50.25" y="726.25"/>
      <point x="54.25" y="711.75"/>
    </contour>
  </outline>
</glyph>
<glyph name="underscore.titl" format="2">
  <advance width="720.0"/>
  <outline>
    <contour>
      <point x="-6.0" y="-186.75" type="line"/>
      <point x="726.0" y="-186.75" type="line"/>
      <point x="726.0" y="-119.25" type="line"/>
      <point x="-6.0" y="-119.25" type="line"/>
    </contour>
  </outline>
</glyph>
<glyph name="zero.lf.ss01" format="2">
  <advance width="1060.0"/>
  <outline>
    <contour>
      <point x="564.0" y="-17.0" type="line"/>
      <point x="809.75" y="-0.5"/>
      <point x="1004.5" y="201.75"/>
      <point x="1004.5" y="450.0" type="curve" smooth="yes"/>
      <point x="1004.5" y="698.25"/>
      <point x="809.75" y="900.5"/>
      <point x="564.0" y="917.0" type="curve"/>
      <point x="564.0" y="758.75" type="line"/>
      <point x="717.5" y="742.25"/>
      <point x="834.0" y="611.25"/>
      <point x="834.0" y="450.0" type="curve" smooth="yes"/>
      <point x="834.0" y="288.75"/>
      <point x="717.5" y="157.75"/>
      <point x="564.0" y="141.25" type="curve"/>
    </contour>
    <contour>
      <point x="496.0" y="-17.0" type="curve"/>
      <point x="496.0" y="141.25" type="line"/>
      <point x="342.5" y="157.75"/>
      <point x="226.0" y="289.5"/>
      <point x="226.0" y="450.0" type="curve" smooth="yes"/>
      <point x="226.0" y="610.5"/>
      <point x="342.5" y="742.25"/>
      <point x="496.0" y="758.75" type="curve"/>
      <point x="496.0" y="917.0" type="line"/>
      <point x="250.25" y="900.5"/>
      <point x="55.5" y="698.25"/>
      <point x="55.5" y="450.0" type="curve" smooth="yes"/>
      <point x="55.5" y="201.75"/>
      <point x="250.25" y="-0.5"/>
    </contour>
  </outline>
</glyph>
